<?xml version="1.0" encoding="UTF-8"?> <svg xmlns="http://www.w3.org/2000/svg" xmlns:xlink="http://www.w3.org/1999/xlink" version="1.1" id="Layer_1" x="0px" y="0px" viewBox="0 0 1185.2 384.7" xml:space="preserve"> <g> <defs> <rect id="SVGID_1_" width="1185.2" height="384.7"></rect> </defs> <clipPath id="SVGID_2_"> <use xlink:href="#SVGID_1_" overflow="visible"></use> </clipPath> <path clip-path="url(#SVGID_2_)" fill="#FFFFFF" d="M197.2,196.2l-12,88.7c-0.1,0.1-0.2,0.1-0.2,0.2l0.2,0l-3.8,28.1 c0-0.6,0.2-1.2,0.4-1.9c0.1-0.6,0.4-1.1,0.7-1.6c0.1-0.2,0.3-0.5,0.4-0.7c0.4-0.5,0.8-1,1.3-1.4c0.2-0.2,0.4-0.4,0.7-0.6 c0.6-0.5,1.3-0.9,2-1.3c0.3-0.2,0.5-0.4,0.8-0.5c0.8-0.4,1.7-0.9,2.6-1.2c0.3-0.1,0.6-0.2,0.9-0.4c1-0.4,2.2-0.8,3.3-1.2 c0.3-0.1,0.5-0.2,0.8-0.2c1.3-0.4,2.6-0.7,4.1-1.1c0.2,0,0.5-0.1,0.7-0.2c1.6-0.3,3.2-0.6,4.8-1c0.1,0,0.3,0,0.4-0.1 c35.4-6.2,100.8-3.4,130.9-8.3c0.1,0,0.2,0,0.3,0c1.4-0.2,2.8-0.5,4-0.8c0.2,0,0.4-0.1,0.6-0.1c1.1-0.3,2.1-0.5,3.1-0.8 c0.2-0.1,0.5-0.1,0.7-0.2c0.9-0.3,1.6-0.6,2.4-0.9c0.2-0.1,0.5-0.2,0.8-0.3c0.6-0.3,1.1-0.6,1.6-1c0.2-0.1,0.5-0.2,0.6-0.4 c0.4-0.3,0.7-0.7,1-1.1c0.1-0.1,0.3-0.3,0.4-0.4c0.3-0.5,0.5-1.2,0.5-1.8l0.7-39.6c0.5-0.1,1.1-0.2,1.7-0.3 c7.5-1.3,15.2-2.4,22.9-3.6c2-0.3,4.1-0.6,6.1-0.9c5.7-0.8,11.5-1.6,17.3-2.3h383.9c5.4,0.7,10.7,1.4,16,2.1 c2.6,0.4,5.2,0.8,7.8,1.1c6.5,0.9,12.9,2,19.3,3c1.4,0.2,2.8,0.4,4.2,0.7l0,0.1l0.7,39.7c0,0.6,0.1,1.2,0.5,1.8 c0.1,0.2,0.3,0.3,0.4,0.4c0.3,0.4,0.6,0.8,1,1.1c0.1,0.1,0.4,0.3,0.6,0.4c0.5,0.4,1,0.7,1.7,1c0.2,0.1,0.5,0.2,0.7,0.3 c0.7,0.3,1.5,0.6,2.4,0.9c0.2,0.1,0.5,0.1,0.8,0.2c1,0.3,2,0.5,3.1,0.8c0.2,0,0.4,0.1,0.6,0.1c1.2,0.3,2.5,0.5,3.9,0.8 c0.1,0,0.2,0,0.3,0c28.6,4.6,88.8,2.3,125.1,7.3c0.1,0,0.2,0,0.3,0c1.9,0.3,3.6,0.6,5.4,0.8c0.2,0.1,0.5,0.1,0.7,0.1 c1.6,0.3,3.1,0.6,4.5,0.9c0.3,0.1,0.7,0.2,1,0.2c1.3,0.3,2.6,0.6,3.7,0.9c0.4,0.1,0.8,0.2,1.2,0.4c1.1,0.3,2.1,0.7,3,1 c0.4,0.2,0.8,0.3,1.2,0.5c0.8,0.4,1.6,0.7,2.4,1.1c0.4,0.2,0.7,0.4,1.1,0.6c0.6,0.4,1.2,0.8,1.7,1.2c0.3,0.3,0.6,0.6,0.9,0.8 c0.4,0.4,0.8,0.8,1.2,1.2c0.2,0.3,0.4,0.7,0.6,1c0.3,0.5,0.5,0.9,0.6,1.3c0.2,0.6,0.4,1.3,0.4,2l-0.2-1.6v0l-2.5-19.5 c-0.1-0.1-0.1-0.1-0.2-0.2l-1-6.8l0.2,0c-0.1,0-0.2-0.1-0.2-0.1l-12-88.8l71.9-89.3c0,0-0.2-0.1-0.5-0.1c-0.3-0.1-0.6-0.2-1.2-0.3 c-0.2-0.1-0.3-0.1-0.6-0.2c-0.9-0.3-2.1-0.6-3.5-1h0c-0.6-0.2-1.3-0.4-1.9-0.6c-0.2-0.1-0.4-0.1-0.6-0.2c-0.8-0.2-1.6-0.4-2.4-0.7 h-0.1c-14.7-4.2-41.9-11.7-68.9-17.9c0,0-0.1,0-0.1,0c-1.7-0.4-3.5-0.8-5.2-1.2c-0.1,0-0.2-0.1-0.3-0.1c-1.7-0.3-3.3-0.7-4.9-1.1 c-0.2,0-0.4-0.1-0.6-0.2c-1.6-0.3-3.2-0.6-4.7-1c-0.2-0.1-0.5-0.1-0.7-0.1c-1.5-0.3-3.1-0.6-4.6-0.9c-0.2,0-0.5-0.1-0.7-0.2 c-1.5-0.3-3.1-0.6-4.5-0.9c-0.2,0-0.3,0-0.5-0.1c-1.5-0.3-3-0.6-4.6-0.8c-0.1,0-0.2,0-0.3-0.1c-6.6-1.1-12.7-2.1-18.2-2.7l0.2-1.4 h0l2-14.3c-95.6-25.4-212.7-40.3-339.2-40.3c-126.4,0-243.5,14.9-339.1,40.3l2,14.3l0.2,1.3c-44.7,4.8-130.7,30.4-130.7,30.4 L197.2,196.2z"></path> <path clip-path="url(#SVGID_2_)" fill="#FFFFFF" d="M1173.7,118.7c0,0-105.9-31.5-161.6-37.7l2.7-19.5 C895.9,30,750.3,11.4,593,11.4c-157.2,0-302.8,18.5-421.7,50.1l2.7,19.4c-55.6,6-162.5,37.8-162.5,37.8l89.4,111L81.5,373.3 c8.1-32.5,212.3-9.7,212.3-34.6l0.9-49.3c91-15.3,192-23.7,298.4-23.7c106.1,0,206.8,8.4,297.7,23.6l-0.1,0.1l0.8,49.4 c0,24.8,204.2,2.1,212.4,34.6l-19.4-143.5L1173.7,118.7z"></path> <path clip-path="url(#SVGID_2_)" fill="#FFFFFF" d="M1103.7,384.7c-4.9,0-9.4-3.2-10.9-8c-8.7-9.7-73.7-11.4-108.7-12.4 c-67.1-1.8-104.1-2.8-104.1-25.6l-0.7-39.8C788.8,284.4,692.6,277,593,277c-100,0-196.5,7.4-287.1,22l-0.7,39.8 c0,22.5-37,23.6-104.1,25.4c-35,1-100,2.7-108.7,12.4c-1.7,5.5-7.3,8.9-13.1,7.8c-6-1.1-10-6.7-9.2-12.8l18.7-138.6L2.5,125.9 c-2.4-3-3.1-6.9-2-10.6c1.1-3.6,4-6.5,7.7-7.6c4.1-1.2,95.2-28.2,152.9-36.7l-1.1-7.9c-0.8-5.7,2.8-11.2,8.4-12.6 C292.7,17.5,439.6,0,593,0c153.5,0,300.3,17.5,424.8,50.5c5.6,1.5,9.2,6.9,8.4,12.6l-1.1,8.1c57.6,8.6,147.9,35.4,152,36.6 c3.7,1.1,6.5,3.9,7.7,7.6c1.1,3.6,0.4,7.6-2,10.6l-86.3,107.2l18.7,138.6c0.8,6-3.2,11.6-9.2,12.8 C1105.2,384.6,1104.5,384.7,1103.7,384.7 M902.8,334.9c11.4,4.6,51.9,5.7,81.9,6.5c46.5,1.3,82.2,2.7,104.4,9.1L1073,231.3 c-0.4-3.1,0.5-6.3,2.4-8.7L1154,125c-31.8-9-102-28-143.2-32.5c-3.1-0.3-5.9-1.9-7.8-4.3c-1.9-2.4-2.7-5.5-2.3-8.6l1.3-9.4 C881.7,39.2,740.5,22.9,593,22.9c-147.4,0-288.6,16.3-409,47.2l1.3,9.3c0.4,3.1-0.4,6.2-2.3,8.6c-1.9,2.4-4.7,4-7.8,4.3 C134.1,96.7,63.1,115.9,31.1,125l78.6,97.6c2,2.4,2.8,5.6,2.4,8.7L96.1,350.4c22.3-6.4,57.9-7.8,104.4-9 c30.1-0.8,70.6-1.9,81.9-6.5l0.8-45.7c0.1-5.5,4.1-10.2,9.5-11.1c94.5-15.9,195.5-23.9,300.3-23.9c104.3,0,205.1,8,299.6,23.8 c4,0.7,7.4,3.4,8.8,7.3c0.6,1.7,0.9,3.6,0.6,5.4L902.8,334.9z M282.3,338.4c0,0.1,0,0.2,0,0.2L282.3,338.4z M902.8,338.3l0,0.2 C902.8,338.4,902.8,338.3,902.8,338.3"></path> <path clip-path="url(#SVGID_2_)" fill="#FFFFFF" d="M293.8,338.7c0,25.3-212.6,1.1-212.6,36.6l19.7-145.5l-89.4-111 c0,0,120.9-36,172.5-38.6l110.7,209.2L293.8,338.7"></path> <path clip-path="url(#SVGID_2_)" fill="#2A2A86" d="M81.2,377.4c0,0-0.1,0-0.1,0c-1.1-0.1-2-1-2-2.1c0-1,0.1-1.9,0.4-2.7 l19.3-142.2L9.8,120.1c-0.4-0.5-0.6-1.3-0.4-1.9c0.2-0.7,0.7-1.2,1.4-1.4c1.2-0.4,121.8-36.1,173-38.7c0.8-0.1,1.6,0.4,2,1.1 l110.7,209.2c0.2,0.3,0.3,0.7,0.2,1l-0.9,49.3c0,13-36.1,14.6-95.1,16.2c-50.4,1.4-112.7,3-117.3,18.5l-0.3,2.2 C83.1,376.6,82.2,377.4,81.2,377.4 M15.1,119.9l87.5,108.5c0.4,0.5,0.5,1,0.4,1.6L84.6,365.5c16.1-12.1,64.9-13.4,116.1-14.8 c40.5-1.1,91-2.5,91-12v0l0.8-48.8L182.7,82.3C135.9,85.1,33.9,114.4,15.1,119.9"></path> <path clip-path="url(#SVGID_2_)" fill="#2A2A86" d="M293.8,319.8c0,23.3-179.5,4.8-208.6,29.1l-4,26.4 c0-35.4,212.6-11.2,212.6-36.6V319.8z"></path> <path clip-path="url(#SVGID_2_)" fill="#2A2A86" d="M81.2,376L81.2,376c-0.4,0-0.7-0.4-0.7-0.7c0-0.9,0.1-1.9,0.4-2.7l3.6-23.8 c0-0.2,0.1-0.3,0.3-0.5c14.8-12.3,66.2-13.7,116-15.1c45.4-1.2,92.4-2.5,92.4-13.4c0-0.4,0.3-0.7,0.7-0.7c0.4,0,0.7,0.3,0.7,0.7 v18.9c0,12.3-43.4,13.5-93.7,14.9c-53.2,1.4-113.3,3.1-118.5,19.3l-0.4,2.5C81.8,375.7,81.5,376,81.2,376 M85.9,349.3l-3,19.7 c11.9-14,65.7-15.4,117.9-16.9c45.4-1.2,92.3-2.5,92.3-13.4v-15.2c-8,9-47.4,10-92.3,11.3C153.8,336,100.6,337.4,85.9,349.3"></path> <path clip-path="url(#SVGID_2_)" fill="#ED1C24" d="M88.5,341.4l-5.7-7.3c16.5-12.8,68.1-14.2,118-15.5c33.9-0.9,85.2-2.3,88.4-9.6 l9.2,0.1c0,15.3-33.4,17-97.3,18.7C154.9,329.1,102.6,330.5,88.5,341.4"></path> <path clip-path="url(#SVGID_2_)" fill="#2A2A86" d="M11.6,119.4l-0.4-1.4c1.2-0.4,121.6-36.1,172.6-38.7l0.1,1.5 C133.1,83.4,12.9,119.1,11.6,119.4"></path> <path clip-path="url(#SVGID_2_)" fill="#2A2A86" d="M192.5,96.8c-47.1,2.4-150.2,32.2-168,37.5l-13.1-15.5c0,0,120.9-36,172.5-38.6 L192.5,96.8z"></path> <path clip-path="url(#SVGID_2_)" fill="#ED1C24" d="M30.8,147.4l-2.6-8.8c45.1-13.1,126.9-35.3,168-37.4l0.5,9.2 C155,112.4,66.8,136.9,30.8,147.4"></path> <path clip-path="url(#SVGID_2_)" fill="#2A2A86" d="M81.2,379.5c-0.1,0-0.2,0-0.3,0c-2.2-0.1-4-2-4-4.2c0-1.2,0.1-2.4,0.4-3.4 L96.4,231L8.1,121.4c-0.9-1.1-1.2-2.6-0.7-3.9c0.4-1.3,1.5-2.4,2.8-2.8c5-1.5,122-36.2,173.5-38.8c1.7-0.1,3.2,0.8,4,2.3 l110.7,209.2c0.3,0.6,0.5,1.3,0.5,2.1l-0.8,49.3c-0.1,15-33.4,16.6-97.1,18.3c-44.4,1.2-110.7,3-115.2,16.7l-0.3,2.1 C85.1,377.9,83.3,379.5,81.2,379.5 M18.7,121l85.4,106c0.7,0.9,1.1,2.1,0.9,3.2L87.4,361.1c17.8-9.1,57.7-11,113.3-12.5 c24.3-0.7,47.3-1.3,64.3-3.2c23.5-2.6,24.6-6.7,24.6-6.7c0,0,0,0,0-0.1l0.8-48.3L181.4,84.5C136.4,87.7,43.4,113.9,18.7,121"></path> <path clip-path="url(#SVGID_2_)" fill="#FFFFFF" d="M293.8,338.7c0-25.3-81-29.2-88-31.5c0,0,53.3-12.6,88.9-17.8L293.8,338.7z"></path> <path clip-path="url(#SVGID_2_)" fill="#2A2A86" d="M293.8,342.9L293.8,342.9c-2.4,0-4.2-1.9-4.2-4.2c0-16.7-55.1-23.4-73.2-25.7 c-7.1-0.9-10.2-1.3-11.9-1.8c-1.8-0.6-3-2.3-2.9-4.2c0.1-1.9,1.4-3.5,3.3-4c0.5-0.1,53.9-12.7,89.3-17.9c1.2-0.2,2.5,0.2,3.4,1 c0.9,0.8,1.5,2,1.4,3.3l-0.9,49.4C298,341.1,296.1,342.9,293.8,342.9 M298,338.7L298,338.7L298,338.7z M229.4,306.2 c25.6,3.6,48.6,8.6,60.4,17.7l0.5-29.6C270.6,297.4,246.6,302.4,229.4,306.2"></path> <path clip-path="url(#SVGID_2_)" fill="#FFFFFF" d="M891.4,338.7c0,25.3,212.6,1.1,212.6,36.6l-19.6-145.5l89.4-111 c0,0-120.9-36-172.5-38.6L890.5,289.3L891.4,338.7"></path> <path clip-path="url(#SVGID_2_)" fill="#2A2A86" d="M1101.9,375.5l-0.3-2.1c-4.6-15.4-66.9-17.1-117.3-18.5 c-58.9-1.6-95-3.2-95.1-16.2l-0.8-49.9l0.3-0.5L1000,77.9l1.3,0.1c51.2,2.6,171.7,38.4,173,38.7l3,0.9l-90.8,112.7l19.2,142.2 c0.2,0.9,0.4,1.8,0.4,2.7L1101.9,375.5z M892.7,289.8l0.8,48.8c0,9.6,50.4,10.9,91,12c51.2,1.4,100,2.7,116.1,14.8l-18.4-136.4 l0.6-0.7l87.4-108.5c-18.8-5.5-120.8-34.7-167.6-37.6L892.7,289.8z"></path> <path clip-path="url(#SVGID_2_)" fill="#ED1C24" d="M1096.8,341.4c-14.1-10.9-66.4-12.4-112.6-13.6c-64-1.7-97.3-3.4-97.3-18.7h9.2 c0,0,0-0.1,0-0.1c3.2,7.3,54.5,8.7,88.4,9.6c49.9,1.4,101.6,2.8,118,15.5L1096.8,341.4z"></path> <path clip-path="url(#SVGID_2_)" fill="#2A2A86" d="M1173.5,119.4c-1.2-0.4-121.4-36-172.3-38.6l0.1-1.5 c51,2.6,171.4,38.3,172.6,38.7L1173.5,119.4z"></path> <path clip-path="url(#SVGID_2_)" fill="#2A2A86" d="M992.6,96.8c47.1,2.4,150.3,32.2,168.1,37.5l13-15.5c0,0-120.9-36-172.5-38.6 L992.6,96.8z"></path> <path clip-path="url(#SVGID_2_)" fill="#ED1C24" d="M1154.4,147.4c-36-10.4-124.2-34.9-165.9-37.1l0.5-9.2 c42.7,2.2,131.7,26.9,168,37.4L1154.4,147.4z"></path> <path clip-path="url(#SVGID_2_)" fill="#2A2A86" d="M1104,379.5c-2.1,0-3.9-1.6-4.2-3.7l-0.3-2.1c-4.5-13.7-70.8-15.5-115.2-16.7 c-63.8-1.7-97.1-3.3-97.1-18.3l-0.8-49.3c0-0.7,0.2-1.4,0.5-2.1L997.5,78.1c0.8-1.5,2.4-2.3,4-2.3c51.5,2.6,168.5,37.3,173.5,38.8 c1.4,0.4,2.4,1.5,2.8,2.8c0.4,1.4,0.1,2.8-0.7,3.9L1088.8,231l19,140.8c0.3,1.1,0.4,2.2,0.4,3.4c0,2.2-1.7,4.1-4,4.2 C1104.2,379.5,1104.1,379.5,1104,379.5 M894.8,290.4l0.8,48.3v0.1c0,0,1.1,4.1,24.6,6.7c17,1.9,40,2.5,64.3,3.2 c55.6,1.5,95.5,3.4,113.3,12.5l-17.7-130.8c-0.2-1.2,0.2-2.3,0.9-3.2l85.4-106c-24.6-7.1-117.7-33.4-162.7-36.5L894.8,290.4z"></path> <path clip-path="url(#SVGID_2_)" fill="#2A2A86" d="M891.4,319.8c0,23.3,180.1,4.9,209.3,29.1l3.3,26.3 c0-35.4-212.6-11.2-212.6-36.6V319.8z"></path> <path clip-path="url(#SVGID_2_)" fill="#2A2A86" d="M1104,376c-0.4,0-0.7-0.3-0.7-0.6l-0.3-2.1c-4.4-16.6-65-18.3-118.6-19.7 c-50.3-1.4-93.7-2.5-93.7-14.9v-18.9c0-0.4,0.3-0.7,0.7-0.7c0.4,0,0.7,0.3,0.7,0.7c0,10.9,47.1,12.2,92.8,13.5 c49.9,1.4,101.5,2.8,116.3,15.1c0.1,0.1,0.2,0.3,0.3,0.5l3,24.1c0.2,0.7,0.3,1.5,0.3,2.3C1104.7,375.6,1104.4,376,1104,376 L1104,376z M892.1,323.4v15.3c0,10.9,46.9,12.2,92.3,13.4c52.5,1.4,106.5,2.9,118.1,17.1l-2.5-19.8 c-14.7-11.8-68.1-13.3-115.2-14.6C939.7,333.5,900.1,332.4,892.1,323.4"></path> <path clip-path="url(#SVGID_2_)" fill="#FFFFFF" d="M593,265.6c142.4,0,275.2,15.2,387.3,41.6l34.5-245.6 C895.9,30,750.3,11.4,593,11.4c-157.2,0-302.8,18.5-421.7,50.1l34.5,245.6C317.9,280.8,450.7,265.6,593,265.6"></path> <path clip-path="url(#SVGID_2_)" fill="#2A2A86" d="M982.1,309.8l-2.2-0.5c-115.6-27.2-249.3-41.5-386.8-41.5 c-137.4,0-271.2,14.4-386.8,41.5l-2.3,0.5L168.9,60l1.8-0.5C294.4,26.7,440.4,9.3,593,9.3c152.7,0,298.7,17.4,422.4,50.2l1.8,0.5 L982.1,309.8z M593,263.5c136.9,0,270.2,14.2,385.5,41.1l33.9-241.5C889.5,30.7,744.5,13.5,593,13.5 c-151.5,0-296.5,17.1-419.4,49.6l33.9,241.5C322.9,277.7,456.1,263.5,593,263.5"></path> <path clip-path="url(#SVGID_2_)" fill="#2A2A86" d="M983,289c-112.9-26.5-246.7-41.9-390-41.9c-143.3,0-277,15.4-389.9,41.9 l2.7,18.2c112.1-26.3,244.9-41.6,387.3-41.6c142.4,0,275.2,15.2,387.3,41.6L983,289z"></path> <path clip-path="url(#SVGID_2_)" fill="#ED1C24" d="M982.7,282.5c-116.6-27.3-251.4-41.8-389.7-41.8c-138.3,0-273,14.5-389.6,41.8 l-2.1-9c117.3-27.5,252.7-42,391.7-42c139.1,0,274.6,14.5,391.8,42L982.7,282.5z"></path> <path clip-path="url(#SVGID_2_)" fill="#ED1C24" d="M176.1,93.9l-2.3-8.9C296.9,52.7,441.9,35.6,593,35.6 c151,0,295.9,17.1,419.1,49.3l-2.3,8.9c-122.4-32.1-266.6-49-416.8-49C442.7,44.8,298.5,61.8,176.1,93.9"></path> <path clip-path="url(#SVGID_2_)" fill="#2A2A86" d="M171.3,61.6C290.2,30,435.8,11.4,593,11.4c157.3,0,302.9,18.5,421.8,50.1 l-2.5,17.7C893.9,48.1,749.2,29.8,593,29.8c-156.2,0-300.8,18.3-419.3,49.5L171.3,61.6z"></path> <path clip-path="url(#SVGID_2_)" fill="#2A2A86" d="M983.8,312.4l-4.5-1.1c-115.4-27.1-249-41.5-386.3-41.5 c-137.3,0-270.9,14.3-386.3,41.5l-4.5,1.1L166.5,58.4l3.6-1C294,24.6,440.2,7.2,593,7.2c152.9,0,299.1,17.4,422.9,50.3l3.6,1 L983.8,312.4z M176,64.7L209.3,302c115-26.6,247.6-40.6,383.7-40.6c136.2,0,268.8,14,383.7,40.6l33.3-237.3 c-122.3-32.1-266.5-49-417.1-49C442.4,15.7,298.3,32.6,176,64.7"></path> <path clip-path="url(#SVGID_2_)" fill="#FFFFFF" d="M891.4,338.7c0-25.3,81-29.2,88-31.5c0,0-53.2-12.6-88.9-17.8L891.4,338.7z"></path> <path clip-path="url(#SVGID_2_)" fill="#2A2A86" d="M891.4,342.9c-2.3,0-4.2-1.9-4.2-4.2l-0.8-49.4c0-1.2,0.5-2.4,1.4-3.3 c0.9-0.8,2.2-1.2,3.4-1c35.4,5.2,88.7,17.8,89.2,17.9c1.9,0.4,3.2,2.1,3.3,4c0.1,1.9-1.1,3.6-2.9,4.2c-1.7,0.5-4.9,0.9-11.9,1.8 c-18.1,2.2-73.2,9-73.2,25.7C895.6,341,893.8,342.9,891.4,342.9L891.4,342.9z M894.9,294.3l0.5,29.6c11.8-9.1,34.8-14.1,60.4-17.7 C938.6,302.4,914.6,297.4,894.9,294.3"></path> <path clip-path="url(#SVGID_2_)" fill="#FFFFFF" d="M772.5,91.4c2.7-1.9,4-4.9,4.7-7.9c0.7-2.6,1.6-6.4-1-8.5 c-1.2-0.8-2.6-1.4-4.2-1.1c-1.4,0.5-3,0.9-3.8,2.4c-1.8,3.5,0.1,7.5,1.4,10.7C770.3,88.6,770.9,90.5,772.5,91.4 M794.5,87.5 c0.1-1.5,0-3-1.1-4.1c-1.2-1.6-3-1.9-4.7-1.9c-3.2,0.6-5.4,3.8-7.2,6.2c-1,2.2-2.6,4.3-3,6.7C784.4,94.4,791.9,93.7,794.5,87.5 M771.8,104.2c2,0,3.6-0.6,5-2.1c1.3-1.9,1.3-4.3,0-6.1c-1-1.6-2.9-2.4-5-2.2c-1.9,0.3-4,1.8-4.6,3.6c-0.6,1.5-0.5,3.4,0.6,4.6 C768.8,103.2,770.2,104.2,771.8,104.2 M764.2,108.8c-3.5,3.1-6.5,7.3-5,11.7c0.9,1.7,2.5,2,4.2,2.4c2,0,3.9,0.1,5-2 c2.5-3.7,2.1-9.7,1.3-14.2l-0.6-0.9C767.2,105.8,765.8,107.7,764.2,108.8 M779.8,100.6l-0.1,0.5c1.6,2.1,3.8,3.5,5.7,5.1 c3.1,1.9,7.4,2.9,10.9,1.3c1.3-0.6,1.8-1.9,1.9-3.3c0.6-2-0.4-3.8-1.8-5C791.5,96.3,784.1,97.6,779.8,100.6 M775.9,105l-0.6,0.4 c-0.6,2.1-0.6,4.7-0.6,7.1c0,0.4-0.2,0.5,0,0.8c0.3,3.4,1.5,5.9,4,8.1c1.3,0.7,3,1.5,4.7,0.9c1.5-0.8,2.8-1.7,3.2-3.3 C787.6,112.7,780.8,107.9,775.9,105 M429.1,163.1c0-1.4,0-3,0-4.3c-0.5-3.1,0.2-7.1-0.7-10.1c-0.9,0.1-30.3-0.1-30.3-0.1l-1.2,11.4 c-0.3,1.1-0.7,2-1.3,3h-0.2c-1.8,3-4.6,5.8-7.7,7.2c-4.6,2.1-10.9,2.1-14.9-0.8c-1.6-1.1-4.5-3.1-4.7-5.1c0.6-0.4,1.2-1,1.8-1.4 h-4.8c0,0,0,0,0,0l5.1,0c19-11.2,36.5-27.6,43.7-49.2c3.4-11.1,4-25.1-2.3-35c-2.8-3.8-4.3-5.5-7.9-7.9l0.3-0.4 c-6.8-4.3-17-7-25.7-5.9C361,67,344.9,78.7,335.3,94.2c-7,13.1-9.4,28.9-7.6,44.7c0.1,0.5-0.3,1.2-1,1c-3.4-1.4-5.7-5-7.9-7.8h-0.7 c-5.9,7.2-11.8,14.4-18.2,21.5l0.3,0.8c-0.1,0.1-0.3,0.4-0.5,0.3c2,3.1,4.3,5.6,6.9,7.7h0.2c5,4.2,11,7.1,16.9,9.2 c4.5,1,9.1,1.4,13.8,1.8l1.7,1.9c4.4,6,10.5,9.9,16.6,13c0.3,0.1,0,0.5-0.3,0.7c-9.4-0.1-20.4-0.4-30-0.6c-0.4,1.5-0.2,2.4-0.1,3.9 l-0.1,0l0.2,4.2c0,0,0.4,4.5,2.5,10.6c2.1,6.1,8.4,13.2,11.4,15.5c1.5,1.1,3.8,3.1,6.4,4.7c2.4,1.4,5.5,2.5,7,3.2 c2,0.8,10.2,2.4,13.4,2.9c3.2,0.5,12.6,1,14,0.9c1.3-0.1,8.2-0.9,12.9-1.6c4.7-0.8,10-2.3,16-6c2.2-1.4,6.9-5.3,8.3-6.7 c1.1-1.2,2.3-2.3,4.4-5.2c1.8-2.5,4.6-7.9,5.3-11c0.3-1.2,0.9-4.2,1.3-7.6c0.4-4.3,0.6-8.9,0.7-10.3c0.2-2.4-0.1-23-0.1-23H429.1z M355.7,125.5c0.1-0.3,0.4-0.8-0.1-0.9c1-19.2,6-41.3,26.5-48.2c5.1-1.2,11.6,0.2,16,2.4c2.6,1.3,3.5,2.3,5.2,4.9 c5.6,10.9,1.7,24.8-3.5,34.6c-8.6,15-24,26.7-40.5,29.4l-1-0.2C356,140.6,355.7,133.2,355.7,125.5 M396.7,190.3l-0.1,7.8 c0,0-0.1,2.9-0.3,3.7c-0.2,0.9-1,6-2.1,8.2c-1.5,2.8-7.6,4.8-10.3,5.2c-2.8,0.3-4.5,0.5-6.3,0.4c-1.8-0.1-4.5,0-7.3-1 c-2.7-1-3.1-1.1-5.6-3.8c-2.2-2.4-2.4-4-3.4-5.7c-1-1.7-2-6.4-2-7.4c0-1-0.3-4.9-0.1-6.4c0.2-1.5,0.5-0.8,1.3-0.7 c0.9,0.1,3.3,1,4.2,1.2c0.9,0.1,6.2,1.2,7.1,1.2c0.8,0,6.3,0,9-0.2c2.7-0.1,9.3-1.9,10.7-2.2c1.2-0.1,3.7-1.3,4.7-1.5 C397,188.9,396.7,190.3,396.7,190.3 M761.6,94.5c1.6,0.1,3.5,0.9,5,0.1l-1.9-5.5c-2.2-3.4-4.9-8.1-9.8-7.7c-0.9,0.7-2.2,1-2.7,2 c-1.2,1.3-1.6,3.5-1,5.3C753.1,92.8,757.7,93.6,761.6,94.5 M851.4,173.1c-0.6-2.8-0.8-5.6-0.8-8.5c-0.1-2.5,0-5,0-7.3l0-0.7 c-5.1,0-19.6-0.1-21.7-0.1l-0.1,8.1v4.8c-0.4,3.2,0.3,7-2.2,9.4c-1.1,0.9-2.7,1.5-4.4,1.1c-4.7-1.4-4-6.9-4.8-10.8 c0-1.5,0-3.1-0.1-4.5c0.1,0.1-1.1,0.1-2.2,0.1v-0.1h2.2c-0.3-6.4-0.7-12,1.7-17.9c1-1.1,2.2-1.8,3.7-1.6c2.1-0.3,3.6,1.9,4.3,3.7 c1,1.8,1.1,4.4,2.1,5.9c5.4-3.7,10.8-6.7,16-9.5c0-0.9-0.5-1.6-0.6-2.4c-4.8-9.1-14.5-15.6-25.1-14.5c-10.2,0.6-20.2,11-23.5,19 c-2.8,5.1-3.5,11.2-3.6,17.3l2.7,0v0c-1.1,0-2.7,0-2.7,0c-0.1,3.9,0,10.8-0.1,11.6c0,1-0.6,1.9-0.6,1.9c-1.4,1.3-2.7,1.7-4.6,1.2 c-4.9-1.4-3.4-7.5-3.6-11.6V132l-0.5-0.3l-21.1-0.4c-0.4-0.6-0.6,0.1-0.8,0.5c0.1,10.7,0.1,21.7-0.2,32.5l2.7,0v0 c-1.1,0-2.7-0.1-2.7-0.1c-0.1,2.6-0.1,5.2-0.3,7.8v3.2c-0.8,1.3-3.1,2.9-4.8,2.8c-0.9-0.1-2-0.4-2.2-1.1c-2.2-1.3-1.6-8.9-1.6-8.9 c-0.1-1.3,0.2-2.6,0.2-3.9c0-12.2,2.9-26.8-9.6-33.2c-4.3-2.8-14.4-2.3-18.4,0.3c-2.3,1.4-3.5,4-6,5c-1.3-0.7-1.6-2.2-2.7-3.1 c-2.7-3.2-6.7-4.3-10.9-3.7c-2.7,0.7-5,3.2-6.9,5.3c-0.4,1.2-1,2.4-1.8,3.6c-2.9,8.6-5.7,17.8-10.9,25.6c-3,4.5-6.7,8.6-11.7,11.9 c-2.5,1.3-5.2,2.9-8,0.8c-0.3-0.3-0.6-0.9-0.1-1.3c3.7-3.5,7.3-7.2,10.3-11.3h-4v0l4,0c3.4-4.6,5.8-9.8,6.2-15.5 c0.3-4.2-1.4-7.6-2.9-11.1c-3.7-5.9-12.9-10-20.1-9.9c-10.8,1.2-21.1,10.5-25.2,20.5c-1,2.2-1.4,4.8-2.6,7c-0.3,3.1-0.6,5.9-0.5,9 c0,0.5,0.1,1,0.1,1.6c0.3,5,2.3,9.3,3.6,13.9c-0.5,1-1.7,1.9-2.8,1.9c-1.9,0.2-3.6-0.8-4.8-2.4c-2.5-4.5-2.3-9.5-2.9-14.7 c0,0-2.1-0.1-3.4-0.1l0,0l3.4,0l-0.2-2.2c-2.6-27.8,0.5-56.2,3.9-83.4c0-0.6-0.7-0.2-1-0.4c-9.3,2.7-17.9,6.2-27,8.4l-0.9,0.7 c1.7,14.6,3.3,29.6,2.4,45.1l-0.5,1.1c-1.7-0.2-2.7-0.9-4.4-1.4c-8.3-4.5-19.9-3.5-27.3,2.6c-8.9,7.5-13.5,17.9-13.7,29.1 c-0.1,2.6,0.1,4.9,0.5,7.2c0.2,2.7,1.8,5,1.8,7.7c-1.9,1.1-3.8-0.1-5.5-0.9c-4.3-3.5-5.6-8.6-6-13.8c0,0.1-0.8,0-1.7,0l0-0.1l1.7,0 c-0.2-1.8-0.2-3.6-0.2-5.4c0.4-8.4,6-14.6,7-22.7c-0.7-2.3-6.4-3.7-9-4.6c-2.2,0-4.2-0.9-5.9,0.2c-2.3,4.9-6.5,10.7-12.1,12.4 c-11.5,3.2-9.3-12.3-18.9-13.6c-1.6-1-3.6-0.6-5.4,0.1c-3.9,1-6.4,5.1-7.1,8.9c0,6.5,3.7,11.4,5.8,17c0.6,2.2,1.2,4.8,1.5,7.4 l1.9,0v0l-1.9,0c0.7,5.8,0.4,11.3-2.8,15.2c-0.8,0.9-1.9,1.5-3.1,1.4c-1.6-0.4-1.6-2.2-2-3.3c-0.1-4.1-0.2-8.7-0.3-13.2h-1.2v0 l1.2,0v-6.7c-0.2-2-2.6-1.1-3.8-1.2c-6.6,0.2-12.7-0.6-18.8-0.2c0.4,2.6,0.5,5.3,0.5,8l2.1,0l0,0c-0.8,0-1.7,0-2.1,0l0.1,1.1 c0,3.4-0.3,5.7-0.8,8.9c-0.4,2.2-0.4,4.1-2.4,5.4c-1.1,0.5-2.5,0.3-3.5-0.3c-3.7-3.8-5-9-5.9-14c0-0.5-0.1-0.8-0.1-1.3 c-0.5-7.2-1.3-15.9,2.8-21.8c1-0.7,2.3-0.9,3.5-0.6c1.6,0.7,2.8,2.4,3.2,3.9c1.1,3,1.3,6.2,2.6,9.1c5.1-3.3,10.6-6.9,16.5-10 l0.2-0.7c-1.5-4.1-4.7-7.7-8.3-10.3c-7.9-5.8-20.3-7.1-29.2-2.2c-10.7,5.4-16.1,16.6-17.5,27.6c-0.1,1.6-0.2,3.3-0.2,4.9 c0,12.4,4.2,24,15.7,29.8c7.6,4.7,17,5,25.4,0.2c2.4-2.6,4.7,0.7,7.1,1.4c10.2,4.1,22.2,1.1,29.8-6.3c6.9-6.3,9.5-15.6,8.7-24.9 h-2.1v0l2.1,0c-0.3-2.7-0.9-5.5-1.8-8.2l0.3-0.7l6.4-0.8l0.7,0.4c-1.2,2.8-2,6.1-2.4,9.1l2,0l0,0.1l-2,0c-1,8.8,1.2,17.2,6.2,23.5 c7.4,7.9,14.8,9.9,26,8.3c4.3-0.8,8-3.2,11.8-5.3l3.3,2.1c7.7,5.5,20.4,5.5,28.6,1.4c2.6-1.1,4.5-3.9,7.3-4.8 c3.2,2.3,6.2,4.8,9.8,5.9c9.5,4.1,21.7,2.2,29.9-3.1c4.1,3,8.3,5,13.2,6c14.3,2.3,25.9-6.6,34.8-17.6c0.2-0.3,0.9-0.3,1.1,0.2 l0.1,10.3c0.4,1.9-1,4.5,0.5,5.7c8.3-0.6,15.8-0.7,23.9-0.3l0.9-0.3c-0.3-10.5-0.7-20.8-0.4-31.3h-2.6v0l2.6,0 c0.2-2.2,0.2-4.5,0.4-6.7c0.1-2.2,0.2-4.3,1.7-5.7c1.1-0.8,2.8-1.1,3.8-0.5c1.1,0.4,2,1.5,2.3,2.6c0.4,3.3,0.3,6.9,0.2,10.3 c-0.3,10.6-1.4,20.8,6.9,28.3c6.5,5,13.5,7,22.1,3.7c3.4-1.2,6.3-3.9,9.2-6.3c6.7,4.9,15,8.3,23.8,6.3c4.9-0.6,8.8-3.8,13-5.8 c7.6,5.4,17.9,8.6,27.1,4.7c2.5-0.9,4.3-2.2,6.1-2.8c1.8,1.7,4.5,3.1,6.8,3.6l0-0.2c0.4,0.1,0.5,0.3,1,0.3 c15.4,0.2,30,0.3,45.2,0.4l0.6,0c0-5.6,0.1-12.8,0.1-18.3c-8.9-0.2-17.8,0.1-26.6-0.4C858.4,177.3,853.3,177.5,851.4,173.1 M600.8,163.7l-1.5,0c-0.1,1.9-0.1,3.5,0,5.2c0,3.8-1.5,7.4-5,9.3c-2.9,1.5-5.5,1-8.1-0.7c-4.2-3.2-3.7-8.7-4.5-13.4 c0-0.3,0-0.2-0.1-0.5c-0.2-5.7,0.8-11.7,2.4-16.9c2.4-2.4,5.8-4.2,9.7-3.1c1.7,0.6,3.6,1.9,4.5,3.6c1.9,4.9,1.4,10.8,1.1,16.4 L600.8,163.7L600.8,163.7z M659.9,159c-0.9,1.2-1.9,2.5-3.1,3.5c0,0-0.6,0.8-1.4,0.3c-5-2.8-3.6-15.1,1.6-20.6 c1.5-0.9,4-1.2,5.1,0.6C665.2,148.1,662.8,154.4,659.9,159 M752.2,109.4c5,0.1,8.9-3.6,11.8-7.5c0.3-0.3,0.8-1,0.2-1.4 c-3-1.1-5.8-2.1-9.1-1.8c-3,0.5-6.8,0.8-7.9,4.2c-0.4,1.7,0,3.6,1.2,4.8C749.5,108.7,750.7,109.4,752.2,109.4"></path> <polygon clip-path="url(#SVGID_2_)" fill="#EE3124" points="318.2,162.6 318.2,166.1 315.1,162.6 "></polygon> <polygon clip-path="url(#SVGID_2_)" fill="#EE3124" points="339.7,170.4 339.7,162.7 328.3,162.6 328.3,169.7 "></polygon> <polygon clip-path="url(#SVGID_2_)" fill="#EE3124" points="349.7,162.8 361.2,162.8 361.1,188.1 349.7,181.4 "></polygon> <polygon clip-path="url(#SVGID_2_)" fill="#EE3124" points="371.1,172.7 382.7,174.3 382.6,189.7 371.1,190.5 "></polygon> <polygon clip-path="url(#SVGID_2_)" fill="#EE3124" points="399,163 392.7,171.1 392.6,186.5 399.2,185 399.2,206.4 392.5,216.1 392.5,230.2 404,226.5 404.1,163 "></polygon> <polygon clip-path="url(#SVGID_2_)" fill="#EE3124" points="414.2,163.1 425.7,163.1 425.6,202.3 414,220.8 "></polygon> <polygon clip-path="url(#SVGID_2_)" fill="#EE3124" points="371,217.7 382.5,218 382.4,232 370.9,231.8 "></polygon> <polygon clip-path="url(#SVGID_2_)" fill="#EE3124" points="349.6,191.7 356.3,192.6 361,210.7 361,230.3 349.5,226.7 "></polygon> <polygon clip-path="url(#SVGID_2_)" fill="#EE3124" points="328.3,192.6 339.6,192.5 339.5,219 329.4,205 "></polygon> <polygon clip-path="url(#SVGID_2_)" fill="#EE3124" points="433.5,162.7 441.9,162.7 441.8,184.8 435.9,175.8 "></polygon> <polygon clip-path="url(#SVGID_2_)" fill="#EE3124" points="450.2,162.8 457.5,162.8 461.3,179.3 461.3,193.1 450.1,191.4 "></polygon> <polygon clip-path="url(#SVGID_2_)" fill="#EE3124" points="481.3,163.2 473.2,163 470.2,178.3 470.1,191.5 476.2,189.7 481.2,192.4 "></polygon> <polygon clip-path="url(#SVGID_2_)" fill="#EE3124" points="489.6,163.1 489.5,193.9 500.7,191.4 500.7,180.7 492.2,180.4 492.1,163.1 "></polygon> <polygon clip-path="url(#SVGID_2_)" fill="#EE3124" points="509.3,163.3 516.6,163.3 514.7,177.3 509.3,184.7 "></polygon> <polygon clip-path="url(#SVGID_2_)" fill="#EE3124" points="523.8,163 525.1,176.5 532.3,187.6 532.4,163 "></polygon> <polygon clip-path="url(#SVGID_2_)" fill="#EE3124" points="550.2,193.1 550.2,180.1 546.2,172.7 544,163.3 539.8,163.4 539.6,192 "></polygon> <polygon clip-path="url(#SVGID_2_)" fill="#EE3124" points="559.1,163.3 558.9,191.1 566.5,186.8 569.9,190 570,163.3 "></polygon> <polygon clip-path="url(#SVGID_2_)" fill="#EE3124" points="577.4,163.3 580.7,163.3 582.9,175.5 588.6,181.1 588.6,194.4 577.3,193 "></polygon> <polygon clip-path="url(#SVGID_2_)" fill="#EE3124" points="607.6,186.4 607.7,163.3 600.9,163.2 600.7,174.4 596.5,180.1 596.5,191.4 605,185.5 "></polygon> <polygon clip-path="url(#SVGID_2_)" fill="#EE3124" points="615,163.2 620.1,163.2 626.1,182.9 626,194.5 614.9,191.8 "></polygon> <polygon clip-path="url(#SVGID_2_)" fill="#EE3124" points="633.8,163.1 644.9,163.2 644.8,189.2 634,193 634,181.9 637.2,180.2 633.2,167.9 "></polygon> <polygon clip-path="url(#SVGID_2_)" fill="#EE3124" points="653,163.3 663.8,163.1 663.6,195.2 652.8,193.5 "></polygon> <polygon clip-path="url(#SVGID_2_)" fill="#EE3124" points="671.4,180.5 682.9,172.3 682.8,186.7 671.3,194.2 "></polygon> <polygon clip-path="url(#SVGID_2_)" fill="#EE3124" points="695.2,172.5 695.8,192.6 701.5,192.5 701.7,163 690.2,163 690.2,178.2 "></polygon> <polygon clip-path="url(#SVGID_2_)" fill="#EE3124" points="709.7,163 716.2,163 716.1,192.5 709.6,193.1 "></polygon> <polygon clip-path="url(#SVGID_2_)" fill="#EE3124" points="730.1,163.4 736.6,163.4 736.5,190.7 730,181.9 "></polygon> <polygon clip-path="url(#SVGID_2_)" fill="#EE3124" points="744.5,163.7 750.4,163.6 751.1,176.3 755.2,180.7 755.2,194.5 744.4,194.6 "></polygon> <polygon clip-path="url(#SVGID_2_)" fill="#EE3124" points="763.5,163.8 774.3,163.8 774.2,191.7 765.5,185.9 763.4,188.3 "></polygon> <polygon clip-path="url(#SVGID_2_)" fill="#EE3124" points="782.5,180.2 793.3,181.1 793.2,192.1 782.5,194.1 "></polygon> <polygon clip-path="url(#SVGID_2_)" fill="#EE3124" points="802.1,164 812.4,164.1 812.3,192.5 802,188.3 "></polygon> <polygon clip-path="url(#SVGID_2_)" fill="#EE3124" points="820.2,182.1 831.7,177.7 831.7,190.7 820.2,194.1 "></polygon> <polygon clip-path="url(#SVGID_2_)" fill="#EE3124" points="839.9,163.9 847.5,163.8 850.2,177.4 850.1,195 839.8,192.1 "></polygon> <polygon clip-path="url(#SVGID_2_)" fill="#EE3124" points="858.3,179.8 869.8,180.3 869.7,194.1 858.2,194.2 "></polygon> <polygon clip-path="url(#SVGID_2_)" fill="#EE3124" points="877.4,180.6 885.8,180.8 886.2,194.1 877.3,193.9 "></polygon> <path clip-path="url(#SVGID_2_)" fill="#2A2A86" d="M776.3,75c2.6,2.2,1.7,6,1,8.5c-0.7,2.9-2,5.9-4.7,7.9 c-1.6-0.9-2.2-2.8-2.9-4.4c-1.2-3.1-3.2-7.2-1.4-10.7c0.8-1.5,2.4-1.9,3.8-2.4C773.6,73.7,775,74.2,776.3,75"></path> <path clip-path="url(#SVGID_2_)" fill="#2A2A86" d="M793.4,83.4c1.1,1.1,1.2,2.6,1.1,4.1c-2.6,6.2-10,6.9-16,6.9 c0.4-2.3,2-4.5,3-6.7c1.8-2.4,3.9-5.6,7.2-6.2C790.4,81.6,792.1,81.9,793.4,83.4"></path> <path clip-path="url(#SVGID_2_)" fill="#2A2A86" d="M764.7,89.1l1.9,5.5c-1.5,0.8-3.4,0-5-0.1c-3.9-0.8-8.5-1.7-10.4-5.7 c-0.6-1.8-0.2-3.9,1-5.3c0.5-1,1.8-1.3,2.7-2C759.7,81,762.5,85.7,764.7,89.1"></path> <path clip-path="url(#SVGID_2_)" fill="#2A2A86" d="M776.8,95.9c1.3,1.8,1.3,4.2,0,6.1c-1.3,1.5-3,2.1-5,2.1c-1.6,0-3-0.9-4-2.2 c-1.1-1.2-1.2-3.1-0.6-4.6c0.6-1.9,2.7-3.4,4.6-3.6C773.9,93.5,775.8,94.4,776.8,95.9"></path> <path clip-path="url(#SVGID_2_)" fill="#2A2A86" d="M796.3,99.1c1.4,1.3,2.4,3.1,1.8,5c-0.1,1.4-0.6,2.7-1.9,3.3 c-3.5,1.6-7.8,0.6-10.9-1.3c-1.9-1.6-4.1-3-5.7-5.1l0.1-0.5C784.1,97.6,791.5,96.2,796.3,99.1"></path> <path clip-path="url(#SVGID_2_)" fill="#2A2A86" d="M764.2,100.5c0.6,0.4,0.1,1.1-0.2,1.4c-2.9,3.9-6.8,7.6-11.8,7.5 c-1.5,0-2.7-0.7-3.8-1.7c-1.2-1.2-1.6-3.1-1.2-4.8c1.1-3.4,4.9-3.6,7.9-4.2C758.4,98.5,761.3,99.4,764.2,100.5"></path> <path clip-path="url(#SVGID_2_)" fill="#2A2A86" d="M786.6,119.1c-0.4,1.6-1.7,2.5-3.2,3.3c-1.7,0.6-3.4-0.2-4.7-0.9 c-2.5-2.2-3.7-4.7-4-8.1c-0.2-0.3,0-0.4,0-0.8c0-2.5,0-5,0.6-7.1l0.6-0.4C780.8,107.9,787.6,112.7,786.6,119.1"></path> <path clip-path="url(#SVGID_2_)" fill="#2A2A86" d="M769.8,106.8c0.8,4.5,1.2,10.4-1.3,14.2c-1.1,2.1-3,2-5,2 c-1.7-0.4-3.4-0.7-4.2-2.4c-1.5-4.5,1.4-8.7,5-11.7c1.6-1.1,3-3,5-2.9L769.8,106.8z"></path> <path clip-path="url(#SVGID_2_)" fill="#2A2A86" d="M329.6,192.5c0,0,0.1,3.9,0.5,6.9c0.4,3,2.4,8.4,3.1,9.9 c0.7,1.5,5.2,7.1,6.6,8.7c1.4,1.7,6.4,5.3,9.6,7.1c3.5,1.9,7.2,3.1,11.8,3.9c4.7,0.9,13.9,1.8,14.9,1.8c0.9,0,8.5-0.3,9.3-0.4 c0.9,0,9.8-1.4,12.9-2.5c3.1-1.2,4.9-2.1,7.5-3.3c2.6-1.3,8.2-4.9,12-11c3.5-5.8,5.1-7.3,6.5-12.8c1.4-5.4,1-14,1-16 c0-1.1,0.1-6.7,0-11.9c-0.1-5.1-0.4-9.7-0.4-9.7h4.3c0,0,0.3,20.6,0.1,23c-0.1,1.4-0.3,6-0.7,10.3c-0.3,3.3-1,6.4-1.3,7.6 c-0.7,3-3.5,8.5-5.3,11c-2.2,2.9-3.3,4.1-4.4,5.2c-1.3,1.4-6,5.3-8.3,6.7c-5.9,3.7-11.3,5.2-16,6c-4.7,0.7-11.6,1.6-12.9,1.6 c-1.4,0.1-10.8-0.4-14-0.9c-3.2-0.5-11.4-2.1-13.4-2.9c-1.6-0.7-4.6-1.8-7-3.2c-2.6-1.6-4.9-3.6-6.4-4.7c-3-2.3-9.3-9.4-11.4-15.5 c-2.1-6-2.5-10.6-2.5-10.6l-0.2-4.2L329.6,192.5z"></path> <path clip-path="url(#SVGID_2_)" fill="#2A2A86" d="M325.5,192.6c-0.1-1.6-0.3-2.5,0.1-4c9.6,0.2,20.6,0.5,30,0.6 c0.3-0.2,0.5-0.6,0.3-0.7c-6.1-3.1-12.2-7-16.6-13l-1.7-1.9c-4.7-0.5-9.3-0.9-13.8-1.8c-5.9-2.2-12-5.1-17-9.3l8.5,0.1 c0,0,1.6,2.4,6.7,4.6c4.8,2,7.7,1.9,9.4,2c1.7,0.2,6.4,0.5,7.7-0.1c0.2-0.2,3.7,5.7,6.4,7.8c2.9,2.2,5.6,4.4,7.6,5.9 c2,1.6,7.9,4,10.6,4.6c2.7,0.7,8.9,1.4,11.1,1.6c2.2,0.1,6.6-0.3,9.1-0.8c2.5-0.5,3.7-0.9,5.4-1.5c1.7-0.7,6.2-2.8,7.3-3.2 c1-0.6,3.4-2.3,3.4-2.3s0.8-0.7,1,1.8c0.6,9.3,0,14.7,0,14.7l-4.5,0.5l0.1-7.8c0,0,0.3-1.4-0.7-1.2c-1,0.2-3.5,1.3-4.7,1.5 c-1.3,0.2-8,2-10.7,2.2c-2.7,0.2-8.1,0.2-9,0.2c-0.8,0-6.2-1.1-7.1-1.2c-0.9-0.2-3.4-1.1-4.2-1.2c-0.8-0.2-1.2-0.8-1.3,0.7 c-0.2,1.5,0.1,5.4,0.1,6.4c0,1,1,5.7,2,7.4c1,1.7,1.2,3.2,3.4,5.7c2.5,2.7,3,2.8,5.6,3.8c2.7,1,5.4,0.9,7.3,1 c1.8,0.1,3.6-0.1,6.3-0.4c2.7-0.3,8.9-2.4,10.3-5.2c1.1-2.2,2-7.3,2.1-8.2c0.2-0.9,0.3-3.7,0.3-3.7l4.5-0.5c0,0-0.8,8.6-1.3,10.3 c-1.4,4.2-4,7.8-6.4,9c-2,0.9-10.5,2.8-13.2,2.5c-2.7-0.4-12,1.1-18.4-4.8c-4.9-4.6-6.7-13.4-7.1-15.3c-0.4-1.7-0.8-6.3-0.8-6.3 s-3.8,0.1-5.4-0.1c-1.6-0.1-10.7-0.2-11.8-0.2H325.5z"></path> <path clip-path="url(#SVGID_2_)" fill="#2A2A86" d="M398.1,78.8c-4.4-2.1-10.9-3.5-16-2.4c-20.6,6.8-25.5,29-26.5,48.2 c0.5,0.1,0.3,0.7,0.1,0.9c0,7.7,0.2,15.1,2.6,22l1,0.2c16.5-2.7,31.9-14.4,40.5-29.4c5.2-9.8,9.1-23.7,3.5-34.6 C401.6,81,400.7,80.1,398.1,78.8l5.6-8c3.7,2.3,5.2,4,8,7.9c6.3,9.9,5.7,23.9,2.3,35c-7.2,21.6-24.7,38-43.7,49.2l-63.7-0.4 c-2.6-2.2-5-4.7-6.9-7.7c0.3,0.1,0.4-0.2,0.5-0.3l-0.3-0.8c6.4-7.2,12.4-14.3,18.2-21.5h0.7c2.2,2.8,4.5,6.4,7.9,7.8 c0.7,0.2,1.1-0.5,1-1c-1.8-15.9,0.6-31.7,7.6-44.7c9.6-15.5,25.7-27.2,43.1-29.7c8.7-1.1,18.9,1.6,25.7,5.9L398.1,78.8z"></path> <path clip-path="url(#SVGID_2_)" fill="#2A2A86" d="M395.3,163.5c0.7-1.2,1.3-2.2,1.6-3.5l1.2-11.4c0,0,29.3,0.2,30.3,0.1 c0.9,3,0.2,6.9,0.7,10.1c0.1,1.5,0,3.3,0,4.8L395.3,163.5z"></path> <path clip-path="url(#SVGID_2_)" fill="#2A2A86" d="M471.1,164.4c0,3.4-0.3,5.7-0.8,8.9c-0.4,2.2-0.4,4.1-2.4,5.4 c-1.1,0.5-2.5,0.3-3.5-0.3c-3.7-3.8-5-9-5.9-14c0-0.5-0.1-0.8-0.1-1.3H455c0,0,1.2,6.9,1.5,7.9c0.3,1,1.5,4.8,2.1,6 c0.5,1.1,2.1,3.8,2.9,4.3c0.7,0.6,3.5,1.3,4.6,1.6c1.2,0.3,3,0.3,3.7,0c0.6-0.3,1-0.7,1.4-1.5c0.4-0.8,2.1-3.3,2.4-5.2 c0.3-1.8,1-4.1,1-5c0-1,0.6-5.8,0.5-6.1c-0.1-0.5,0-2,0-2s-3,0-4,0L471.1,164.4z"></path> <path clip-path="url(#SVGID_2_)" fill="#2A2A86" d="M471.1,163.3c0.1-2.7-0.1-5.4-0.5-8c6.1-0.4,12.2,0.4,18.8,0.2 c1.2,0.1,3.7-0.8,3.8,1.2v6.7L471.1,163.3z"></path> <path clip-path="url(#SVGID_2_)" fill="#2A2A86" d="M432.1,163.1c0-1.6,0.1-3.3,0.2-4.9c1.4-11.1,6.8-22.3,17.5-27.6 c8.8-4.8,21.2-3.6,29.2,2.2c3.6,2.6,6.9,6.3,8.3,10.3l-0.2,0.7c-6,3.1-11.4,6.6-16.5,10c-1.2-2.9-1.5-6.1-2.6-9.1 c-0.4-1.5-1.6-3.3-3.2-3.9c-1.3-0.2-2.6-0.1-3.5,0.6c-4.1,6-3.4,14.6-2.8,21.8L432.1,163.1z"></path> <path clip-path="url(#SVGID_2_)" fill="#2A2A86" d="M436,163.1c0,0-0.1,2.3-0.1,2.9c0,0.7,0.3,4.1,0.4,4.8c0.1,0.8,1.1,4.4,1.7,5.9 c0.5,1.5,1.6,3.1,2.5,4.4c0.9,1.4,1.8,2.7,2.7,3.6c0.9,0.9,3.6,3.1,4.8,4c1.3,0.9,2.9,1.2,4.7,2.1c1.8,0.8,1.6,0.6,3,0.8 c1.3,0.3,4.5,0.6,5.8,0.5c1.4-0.1,3.3-0.1,5.1-0.5c1.8-0.4,4.7-2,5.3-2.2c0.6-0.2,4.7-2,4.7-2s2,1.4,2.5,1.9 c0.5,0.6,1.5,1.1,2.4,1.7c0.9,0.6,3.1,1,4.7,1.3c1.7,0.3,3.6,0.2,5.1,0.2c1.4,0,4-0.5,5.2-0.8c1.2-0.2,2.9-1.5,3.8-1.8 c0.9-0.4,4.8-2,5.4-2.8c0.7-0.8,2.4-2.1,2.6-2.6c0.3-0.5,2.2-2.8,2.8-3.7c0.6-0.8,2.5-5.3,2.8-6.7c0.3-1.5,0.7-4.1,0.7-5.8 c0.1-1.6-0.5-5.1-0.5-5.1h4.5c0.9,9.3-1.8,18.6-8.7,24.9c-7.7,7.4-19.6,10.4-29.8,6.3c-2.3-0.7-4.7-4-7.1-1.4 c-8.4,4.7-17.7,4.5-25.4-0.2c-11.5-5.9-15.7-17.4-15.7-29.8H436z"></path> <path clip-path="url(#SVGID_2_)" fill="#2A2A86" d="M493.2,163.3c0.1,4.5,0.2,9.2,0.3,13.2c0.4,1.2,0.3,2.9,2,3.3 c1.2,0.2,2.3-0.4,3.1-1.4c3.3-3.9,3.6-9.4,2.8-15.2l4.3,0.1c0,0-0.3,4.3-0.3,5.1c0,0.8-0.3,3.1-0.3,3.7c-0.1,0.6-0.8,3.5-1.1,4.2 c-0.2,0.8-0.6,1.5-1.2,2.4c-0.5,0.9-2.2,2.9-2.8,3.7c-0.6,0.7-1.8,1.2-2.2,1.3c-0.4,0.2-2.5,0-3.4-0.2c-0.9-0.2-2-0.6-2.8-0.9 c-0.9-0.2-1.6-2.3-1.8-3.2c-0.1-0.5,0.1-16.2,0.1-16.2H493.2z"></path> <polygon clip-path="url(#SVGID_2_)" fill="#2A2A86" points="650.4,163.9 653.3,169.5 655,169.5 661.2,164 "></polygon> <path clip-path="url(#SVGID_2_)" fill="#2A2A86" d="M521.9,163.4c-1,8.8,1.2,17.2,6.2,23.5c7.4,7.9,14.8,9.9,26,8.3 c4.3-0.8,8-3.2,11.8-5.3l3.3,2.1c7.7,5.5,20.4,5.5,28.6,1.4c2.6-1.1,4.5-3.9,7.3-4.8c3.2,2.3,6.2,4.8,9.8,5.9 c9.5,4.1,21.7,2.2,29.9-3.1c4.1,3,8.3,5,13.2,6c14.3,2.3,25.9-6.6,34.8-17.6c0.2-0.3,0.9-0.3,1.1,0.2l0.1,10.3 c0.4,1.9-1,4.5,0.5,5.7c8.3-0.6,15.8-0.7,23.9-0.3l0.9-0.3c-0.3-10.5-0.7-20.8-0.4-31.3h-3.9l0,27.4l-17-0.1l0.1-25.1 c0,0-0.9-0.9-1.2-0.3c-0.4,0.6-5,8.7-5.8,9.7c-0.8,1-5,6.2-5.8,7.2c-0.7,1-5.1,4.6-6,5.5c-0.9,0.8-7,4-7.9,4.5 c-1,0.4-5.6,1.5-7.7,1.3c-2.1-0.3-2.8-0.1-3.3-0.1c-0.4,0-4.4-0.8-5.2-1.2c-0.8-0.5-2.4-0.9-3.1-1.3c-0.7-0.3-4.9-2.5-5.6-3.1 c-0.6-0.7-1.6-1.7-1.6-1.7s-1.5,1.2-2.3,1.7c-0.7,0.5-4.6,2.4-6.2,2.8c-1.6,0.3-2,0.8-3.1,1.1c-1.2,0.2-4.3,0.5-6.1,0.6 c-1.8,0.1-1.6,0-3.3-0.1c-1.7-0.2-5.7-0.7-7.7-1.8c-2-1.1-4.8-1.2-5.9-2.6c-1.2-1.4-3.8-4.7-4.1-4.8c-0.3-0.2-0.7-0.5-0.7-0.5 s-4.1,3.8-5.3,4.7c-1.2,0.8-3.7,2.2-5.4,2.8c-1.8,0.7-3.8,2.1-5.9,1.9c-2.1-0.1-4.3,0.5-5.5,0.5c-1.2,0-4.8-1-5.8-1.2 c-0.9-0.3-1.5-0.9-2.8-1.5c-1.3-0.6-3.5-0.8-6.1-3.6c-2.6-2.8-1.6-1.9-1.6-1.9s-3,2.8-4.8,3.7c-1.9,0.9-4,1.8-6.2,2.6 c-2.2,0.7-4.3,1.1-6.8,1c-2.5-0.1-2.3,0.2-3.4,0.1c-1.1-0.1-5.4-1-6.5-1.5c-1.1-0.5-2.7-1.6-3.9-2.4c-1.2-0.8-3.3-2.2-4.1-3.6 c-0.8-1.4-2.3-2.6-2.5-3.4c-0.2-0.7-2.3-5-3-8.3c-0.7-3.4,0.1-8,0-9.3L521.9,163.4z"></path> <path clip-path="url(#SVGID_2_)" fill="#2A2A86" d="M521.9,163.3c0.4-3,1.2-6.3,2.4-9.1l-0.7-0.4l-6.4,0.8l-0.3,0.7 c0.9,2.7,1.4,5.4,1.8,8.2l-17.3-0.1c-0.3-2.6-0.9-5.1-1.5-7.4c-2.1-5.6-5.8-10.5-5.8-17c0.7-3.8,3.1-7.8,7.1-8.9 c1.8-0.7,3.8-1.1,5.4-0.1c9.6,1.2,7.4,16.8,18.9,13.6c5.5-1.7,9.7-7.5,12.1-12.4c1.7-1.1,3.7-0.2,5.9-0.2c2.6,0.9,8.3,2.3,9,4.6 c-1,8.1-6.5,14.3-7,22.7c0,1.8,0,3.6,0.2,5.4L521.9,163.3z"></path> <path clip-path="url(#SVGID_2_)" fill="#2A2A86" d="M599.4,163.7c0.2-5.6,0.8-11.5-1.1-16.4c-1-1.7-2.8-3.1-4.5-3.6 c-3.8-1.1-7.2,0.6-9.7,3.1c-1.6,5.2-2.6,11.2-2.4,16.9l-26.7,0c0.2-11.2,4.8-21.6,13.7-29.1c7.3-6.1,19-7.1,27.3-2.6 c1.7,0.5,2.7,1.2,4.4,1.4l0.5-1.1c0.9-15.5-0.7-30.5-2.4-45.1l0.9-0.7c9.1-2.2,17.7-5.6,27-8.4c0.3,0.2,1-0.2,1,0.4 c-3.4,27.2-6.5,55.6-3.9,83.4l0.2,2.2L599.4,163.7z"></path> <path clip-path="url(#SVGID_2_)" fill="#2A2A86" d="M657.9,164l17.5,0c3.4-4.6,5.8-9.8,6.2-15.5c0.3-4.2-1.4-7.6-2.9-11.1 c-3.7-5.9-12.9-10-20.1-9.9c-10.8,1.2-21.1,10.5-25.2,20.5c-1,2.2-1.4,4.8-2.6,7c-0.3,3.1-0.6,5.9-0.5,9L657.9,164l-1.2-1.5 c0,0-0.6,0.8-1.4,0.3c-5-2.8-3.6-15.1,1.6-20.6c1.5-0.9,4-1.2,5.1,0.6c3.1,5.3,0.7,11.6-2.2,16.2c-0.9,1.2-1.9,2.5-3.1,3.5 L657.9,164z"></path> <path clip-path="url(#SVGID_2_)" fill="#2A2A86" d="M623.7,164.1c0.6,5.2,0.4,10.2,2.9,14.7c1.2,1.6,2.9,2.6,4.8,2.4 c1,0,2.2-0.9,2.8-1.9c-1.3-4.6-3.3-8.9-3.6-13.9c-0.1-0.5-0.1-1-0.1-1.6c0,0,3.8,0,3.8,0c0,0.1,0,4,0.5,5.2 c0.4,1.3,1.4,5.4,2.5,7.6c1,2.1,1.5,2.8,1.4,3.2c0,0.5-0.7,2-1.3,2.3c-0.2,0.2-1.8,2.3-3.4,2.4c-1.7,0.2-3,0-4.1-0.2 c-1.1-0.2-3-0.2-3.7-0.6c-0.6-0.4-1.4-1-1.6-1.4c-0.3-0.4-2.1-3-2.8-4.5c-0.6-1.5-1.4-4.5-1.4-5c0-0.5-0.8-4.8-0.8-5.8 c0-1-0.3-3-0.3-3.1C619.2,163.8,623.8,164.1,623.7,164.1"></path> <path clip-path="url(#SVGID_2_)" fill="#2A2A86" d="M685.2,163.8l5.4,0c0,0-7.5,9.3-8.1,10c-0.5,0.6-5.1,3.9-6.5,4.6 c-1.4,0.8-2.5,2.3-3.3,2.6c-0.8,0.3-4.6,0.7-5.8,0.6c-1.1,0-2.8-0.7-3.5-0.9c-0.7-0.2-2.9-2.7-3.2-4c-0.3-1.3,0.8-3.8,1.4-4.1 c0.5-0.3,3.3-2.8,4.8-4c1.4-1.1,3.6-4.7,3.6-4.7h5.4c-2.9,4.1-6.6,7.8-10.3,11.3c-0.4,0.4-0.2,1.1,0.1,1.3c2.8,2.1,5.5,0.6,8-0.8 c5-3.3,8.7-7.4,11.7-11.9L685.2,163.8z"></path> <path clip-path="url(#SVGID_2_)" fill="#2A2A86" d="M581.6,163.7c0.1,0.3,0.1,0.2,0.1,0.5c0.8,4.7,0.3,10.2,4.5,13.4 c2.6,1.7,5.2,2.2,8.1,0.7c3.5-1.9,5-5.5,5-9.3c-0.1-1.7-0.1-3.3,0-5.2l4.1,0.1c0,0-0.4,4.8-0.5,6c-0.1,1.2,0.2,4.5-1.4,6.6 c-1.5,2.1-4.2,4.2-5,4.7c-0.7,0.6-2.1,0.7-2.6,1c-0.5,0.3-4.4,0.2-5.1,0.2c-0.7,0-1.4,0.2-2.1-0.2c-0.7-0.4-1.8-1.1-2.5-1.9 c-0.7-0.7-2.4-1.9-3.8-4.5c-1.4-2.6-1.8-4-1.9-4.9c-0.1-1-0.7-6-0.8-6.6l0-0.6H581.6z"></path> <path clip-path="url(#SVGID_2_)" fill="#2A2A86" d="M545.8,163.7c0.4,5.3,1.7,10.4,6,13.8c1.7,0.8,3.6,2,5.5,0.9 c0-2.7-1.6-5-1.8-7.7c-0.4-2.3-0.6-4.6-0.5-7.2h3.7c0,0-0.1,8.1,1.9,11.8c2,3.7,1.2,2.9,1.2,2.9s0.6,0.8,0.8,1.5 c0.1,0.7-0.1,1.3-1.1,1.8c-1,0.3-1.9,0.9-2.8,1.1c-0.3,0.1-1.6,0.6-2.4,0.5c-1-0.3-5.2-1.5-6.4-2.2c-1.2-0.7-1.3-1.1-2.6-2.4 c-1.3-1.2-2.9-4.4-3.3-5.3c-0.4-0.8-1.8-5-2-6.8c-0.3-1.8-0.1-2.9-0.1-2.9S545.8,163.8,545.8,163.7"></path> <path clip-path="url(#SVGID_2_)" fill="#2A2A86" d="M752.2,164.1c0,1.4-0.3,2.6-0.2,3.9c0,0-0.6,7.5,1.6,8.9 c0.2,0.7,1.3,0.9,2.2,1.1c1.7,0.2,3.9-1.5,4.8-2.8v-3.2c0.2-2.5,0.2-5.2,0.3-7.8c0,0,3.9,0.1,3.9,0c0-0.5-0.1,12-0.1,12 s-1.9,2.2-2.9,2.8c-1,0.7-3.6,2.6-5.5,2.6c-1.6,0-1.9-0.2-2.9-0.7c-1-0.5-3.2-1.5-4-4.1c-0.7-2.6-0.2-8.5-0.3-9.3 c-0.2-0.9-0.1-3.6-0.1-3.6S752.2,164,752.2,164.1"></path> <path clip-path="url(#SVGID_2_)" fill="#2A2A86" d="M783.4,164.4v3.2c0.3,4.1-1.3,10.2,3.6,11.6c1.9,0.5,3.3,0.1,4.6-1.2 c0,0,0.5-0.9,0.6-1.9c0.1-0.8,0-7.7,0.1-11.6c0,0,3.9,0,3.9,0c0,0,0.7,11,0.6,11.6c-0.1,0.7-0.7,4.1-1.9,5.4 c-1.4,1.3-2.2,1.7-3.8,1.8c-1.5,0.1-5.6,0.2-6.3-0.3c-0.7-0.5-3.5-1.9-4.5-4.3c-0.9-2.5-0.7-7.3-0.7-9c0-1.6-0.1-5.3-0.1-5.3 L783.4,164.4z"></path> <path clip-path="url(#SVGID_2_)" fill="#2A2A86" d="M817.3,164.5c0,1.4,0.1,3.1,0.1,4.5c0.8,3.9,0.1,9.4,4.8,10.8 c1.6,0.4,3.3-0.1,4.4-1.1c2.4-2.4,1.8-6.2,2.2-9.4v-4.8h3.9l-0.4,13.4c0,0-0.7,0.8-2.4,2.3c-1.9,1.7-5,3.1-6.5,3.1 c-1.6,0-1.5,0.1-2.1-0.1c-0.7-0.2-4.4-2.3-6.1-5.9c-1.7-3.4-1.5-3.8-1.6-4.3c-0.1-0.5-0.1-5-0.1-5v-3.6 C813.3,164.5,817.4,164.6,817.3,164.5"></path> <path clip-path="url(#SVGID_2_)" fill="#2A2A86" d="M850.5,164.6c0.1,2.9,0.3,5.7,0.8,8.5c1.9,4.4,7,4.2,11.1,4.6 c8.8,0.5,17.7,0.2,26.6,0.4c-0.1,5.5-0.1,12.7-0.1,18.3l-0.6,0c-15.1-0.1-29.7-0.2-45.2-0.4c-0.5-0.1-0.5-0.2-1-0.4l0-3.5 c0,0,1.2,0.7,2,0.9c0.8,0.2,21.4,0.1,21.4,0.1l19.7,0.1l0.1-11.4l-15.9-0.1c0,0-9.3-0.5-9.8-0.5c-0.6,0-7.4-1.6-8.7-2.3 c-4.9-2.6-4.3-14.3-4.3-14.3C846.8,164.5,850.2,164.6,850.5,164.6"></path> <path clip-path="url(#SVGID_2_)" fill="#2A2A86" d="M828.7,164.5l0.1-8.1c2.1,0,16.6,0.1,21.7,0.1l0,0.7c0,2.3,0,4.9,0,7.3 L828.7,164.5z"></path> <path clip-path="url(#SVGID_2_)" fill="#2A2A86" d="M727.2,164.1c-0.3,10.6-1.4,20.8,6.9,28.3c6.5,5,13.5,7,22.1,3.7 c3.4-1.2,6.3-3.9,9.2-6.3c6.7,4.9,15,8.3,23.8,6.3c4.9-0.6,8.8-3.8,13-5.8c7.6,5.4,17.9,8.6,27.1,4.7c2.5-0.9,4.3-2.2,6.1-2.8 c1.8,1.7,4.5,3.1,6.8,3.6l0-4.1c0,0-2.1-1.5-2.3-1.6c-0.4-0.2-2.7-2.4-3-2.7c-0.5-0.3-0.6-0.3-1.3,0.1c-0.7,0.4-4.6,2.7-6.2,3.4 c-1.6,0.7-3.6,1.5-6.1,1.7c-2.6,0.2-5.5,0.4-6.4,0.2c-1-0.1-3.6-1-5.9-1.8c-2.3-0.8-4.4-1.5-5.7-2.7c-1.3-1.1-3.3-3-3.3-3 s-2.9,2.6-4.4,3.5c-1.5,0.8-4.6,2.3-6.3,2.6c-1.8,0.4-4.4,1-6.1,1c-1.8,0.1-2.4,0.4-4,0.2c-1.6-0.3-4.3-0.5-6.9-2.3 c-2.5-1.8-5.8-3-7-4.3c-1.2-1.3-2-2.3-2-2.3s-2.1,3.4-3.1,4.2c-1.1,0.9-4.3,3.3-6,4.1c-1.8,0.8-4,1.6-5,1.7c-3,0.3-7.2-0.6-8.8-1 c-2.6-0.7-2.8-1.2-5.6-3.4c-0.8-0.7-1.4-1.6-2.2-2.7c-1.5-1.8-1.4-1.9-1.9-2.9c0.4,0.7-1.5-3.6-1.6-5.1c-0.2-1.5-0.3-6.5-0.3-7 c0.1-0.5,0.3-7.5,0.3-7.6C730.9,164.1,727.2,164,727.2,164.1"></path> <path clip-path="url(#SVGID_2_)" fill="#2A2A86" d="M760.8,164.3c0.3-10.7,0.3-21.8,0.2-32.5c0.3-0.4,0.4-1.1,0.8-0.5l21.1,0.4 l0.5,0.3v32.4L760.8,164.3z"></path> <path clip-path="url(#SVGID_2_)" fill="#2A2A86" d="M727.2,164.2c0.1-3.4,0.2-7-0.2-10.4c-0.3-1.1-1.2-2.1-2.3-2.6 c-1.1-0.6-2.7-0.3-3.8,0.5c-1.6,1.4-1.6,3.5-1.7,5.7c-0.1,2.2-0.2,4.5-0.4,6.7l-33.7-0.2c5.1-7.8,7.9-17,10.9-25.6 c0.8-1.2,1.3-2.4,1.8-3.6c1.9-2,4.2-4.6,6.9-5.3c4.2-0.6,8.3,0.5,10.9,3.7c1.1,0.9,1.4,2.5,2.7,3.1c2.4-1.1,3.7-3.7,6-5 c4-2.6,14.1-3.1,18.4-0.3c12.5,6.4,9.6,21,9.6,33.2L727.2,164.2z"></path> <path clip-path="url(#SVGID_2_)" fill="#2A2A86" d="M792.2,164.4c0.1-6.2,0.8-12.2,3.6-17.3c3.4-8.1,13.3-18.4,23.5-19 c10.6-1,20.3,5.5,25.1,14.5c0.1,0.8,0.6,1.5,0.6,2.4c-5.2,2.9-10.6,5.9-16,9.5c-1.1-1.6-1.2-4.1-2.1-5.9c-0.7-1.8-2.2-3.9-4.3-3.7 c-1.5-0.2-2.7,0.5-3.7,1.6c-2.5,5.9-2,11.5-1.7,17.9L792.2,164.4z"></path> <path clip-path="url(#SVGID_2_)" fill="#2A2A86" d="M400.3,163c0,0-1.2,3-4.9,7.1c-3.4,3.7-10.6,5.3-11.4,5.5 c-1,0.3-3.8,0.7-8.3-0.3c-4.6-1-5.8-2.2-8.5-4.8c-2.7-2.6-5.5-7.6-5.5-7.6h8.2c-0.7,0.4-1.2,1.1-1.8,1.4c0.2,2,3.1,4,4.7,5.1 c4,3,10.3,2.9,14.9,0.8c3.1-1.4,5.9-4.2,7.7-7.2L400.3,163z"></path> <path clip-path="url(#SVGID_2_)" fill="#FFFFFF" d="M382.5,64.3c7.7,0,15.8,2.5,21.6,6.2c5.1,3.3,9.1,9.6,10.8,15.3 c2.8,9,1.8,19.1-0.9,28c-7.2,21.6-24.7,38-43.7,49.2H370c-0.7,0.4-1.2,1.1-1.8,1.4c0.2,2,3.1,4,4.7,5.1c2.2,1.6,5,2.3,7.9,2.3 c2.4,0,4.9-0.5,7-1.5c4.1-1.9,7.4-5.3,8.7-9.6c0.3-1.1,1.7-12,1.7-12s21.3,0.1,28.2,0.1c1.2,0,1.9,0,2.1,0c0.9,3,0.2,6.9,0.7,10.1 c0.1,1.4,0,3,0,4.3c0.1,0,0.4,20.6,0.2,23c-0.1,1.4-0.3,6-0.7,10.3c-0.3,3.3-1,6.4-1.3,7.6c-0.7,3-3.5,8.5-5.3,11 c-2.2,2.9-3.3,4.1-4.4,5.2c-1.3,1.4-6,5.3-8.3,6.7c-5.9,3.7-11.3,5.2-16,6c-4.7,0.7-11.6,1.6-12.9,1.6c-0.1,0-0.3,0-0.4,0 c-2.3,0-10.6-0.4-13.6-0.9c-3.2-0.5-11.4-2.1-13.4-2.9c-1.6-0.7-4.6-1.8-7-3.2c-2.6-1.6-4.9-3.6-6.4-4.7c-3-2.3-9.3-9.4-11.4-15.5 c-2.1-6-2.5-10.6-2.5-10.6c-0.3-2.7-0.1-5.4,0-8.2c0,0,20.6,0.5,30,0.6c0.3-0.2,0.5-0.6,0.3-0.7c-6.1-3.1-12.2-7-16.6-13l-1.7-1.9 c-4.7-0.5-9.3-0.9-13.8-1.8c-1.5-0.5-3-1.1-4.4-1.8c-4.4-1.9-8.7-4.3-12.4-7.5c-2.6-2.2-7.5-8.2-7.5-8.2s12.9-14.9,18.8-22.2 c2.2,2.8,5.2,6.4,8.6,7.8c0.1,0,0.1,0,0.2,0c0.5,0,0.9-0.6,0.7-1.1c-1.8-15.9,0.6-31.7,7.6-44.7c9.6-15.5,25.7-27.2,43.1-29.7 C379.7,64.3,381.1,64.3,382.5,64.3 M359.3,147.7c16.5-2.7,31.9-14.4,40.5-29.4c1.6-3.1,3-6.3,4.1-9.6c2.6-8.1,4-19.5-1.7-26.7 c-3.4-4.3-9.2-6.2-14.8-6.2c-1.8,0-3.6,0.2-5.3,0.6c-6.9,1.6-13.3,7.4-17.1,13.1c-6.9,10.3-9.3,23.5-9.4,36c0,3.7,0.1,7.4,0.5,11 c0.2,1.9,0.4,3.9,0.8,5.8c0.1,0.6,0.9,5.2,1.4,5.3L359.3,147.7 M374.8,193c-0.6,0-1.1,0-1.7,0c-1.5,0-3-0.1-4.4-0.3 c-1.3-0.2-2.6-0.6-3.9-0.9c-1.5-0.3-2.9-1-4.4-1.2c-0.4-0.1-0.7-0.3-0.9-0.3c-0.2,0-0.3,0.2-0.4,1c-0.2,1.5,0.1,5.4,0.1,6.4 c0,1.8,0.6,3.8,1.2,5.4c0.8,2.4,2.2,4.9,3.7,7c1.7,2.2,3.6,3.6,6.2,4.5c1.8,0.7,3.8,0.8,5.7,0.9c0.9,0.1,1.8,0.1,2.6,0.1 c1.2,0,2.4-0.1,3.6-0.2c3.5-0.4,7.4-1.4,10.2-3.5c1.9-1.4,2.7-3.7,3.1-5.9c0.6-2.6,1-5.3,1.1-8l0.1-7.8c0,0,0.3-1.2-0.5-1.2 c-0.1,0-0.1,0-0.2,0c-1,0.2-3.5,1.3-4.7,1.5c-2.5,0.4-5,1.2-7.6,1.6C380.8,192.7,377.8,193,374.8,193 M772.9,73.9 c1.3,0,2.4,0.5,3.4,1.2c2.6,2.2,1.7,6,1,8.5c-0.7,2.9-2,5.9-4.7,7.9c-1.6-0.9-2.2-2.8-2.9-4.4c-1.2-3.1-3.2-7.2-1.4-10.7 c0.8-1.5,2.4-1.9,3.8-2.4C772.3,73.9,772.6,73.9,772.9,73.9 M626.6,77.9c0.3,0,0.7,0.1,0.7,0.4c0,0.4-0.1,0.8-0.1,1.2 c-1.4,11.4-2.8,22.8-3.6,34.2c-0.9,11.5-1.3,23.1-1,34.6c0.2,5.3,0.5,10.6,0.8,15.9c0.3,4.9,0.8,10.1,3.2,14.4 c1.1,1.5,2.6,2.4,4.3,2.4c0.2,0,0.3,0,0.5,0c1,0,2.2-0.9,2.8-1.9c-1.6-5.3-3.6-10.3-3.8-15.9c-0.2-5.4,1.1-10.7,3.1-15.6 c1.7-4.1,4.2-7.8,7.3-10.9c5.3-5.4,12.3-9.3,19.5-9.3c3,0,6,0.7,9,2.1c7.9,4,13.7,12.9,11.9,21.9c-1.9,9.6-9.3,17.2-16,23.6 c-0.4,0.4-0.2,1.1,0.1,1.3c1,0.8,2,1.1,2.9,1.1c1.7,0,3.5-0.9,5.1-1.8c5-3.3,8.7-7.4,11.7-11.9c0.1-0.2,0.2-0.4,0.3-0.5 c2.8-4.4,4.9-9.3,6.8-14.2c0.9-2.5,1.8-4.9,2.6-7.4c0.8-2.3,1.7-4.4,2.7-6.5c2-4.1,5.4-5.8,9-5.8c3.1,0,6.4,1.3,9.1,3.6 c1.1,0.9,1.4,2.5,2.7,3.1c0.1,0,0.2,0.1,0.3,0.1c1.5,0,4.9-4.5,5.9-5.2c2.6-1.7,5.9-2.2,9-2.2c0.8,0,1.6,0,2.4,0.1 c7.8,0.5,13.6,5.9,15.5,13.3c1.8,7.1,0.9,14.5,0.9,21.7c0,1.4-0.3,2.6-0.2,3.9c0,0-0.6,7.5,1.6,8.9c0.2,0.7,1.3,0.9,2.2,1.1 c0.1,0,0.2,0,0.2,0c1.6,0,3.7-1.5,4.5-2.8v-3.2c0.2-2.5,0.2-5.2,0.3-7.8c0.3-10.7,0.3-21.8,0.2-32.5c0.2-0.3,0.3-0.7,0.5-0.7 c0.1,0,0.2,0.1,0.3,0.2l21.1,0.4l0.5,0.3v35.6c0.3,4.1-1.3,10.2,3.6,11.6c0.5,0.1,1,0.2,1.5,0.2c1.2,0,2.1-0.5,3.1-1.4 c0,0,0.5-0.9,0.6-1.9c0.1-0.8,0-7.7,0.1-11.6c0.1-6.2,0.8-12.2,3.6-17.3c3.4-8.1,13.3-18.4,23.5-19c0.7-0.1,1.5-0.1,2.2-0.1 c9.7,0,18.4,6.2,22.9,14.6c0.1,0.8,0.6,1.5,0.6,2.4c-5.2,2.9-10.6,5.9-16,9.5c-1.1-1.6-1.2-4.1-2.1-5.9c-0.6-1.7-2-3.7-3.9-3.7 c-0.1,0-0.2,0-0.4,0c-0.1,0-0.3,0-0.4,0c-1.3,0-2.3,0.7-3.2,1.6c-2.5,5.9-2,11.5-1.7,17.9c0,0,0.1,3.1,0.1,4.5 c0.8,3.9,0.1,9.4,4.8,10.8c0.4,0.1,0.8,0.1,1.1,0.1c1.2,0,2.4-0.5,3.2-1.2c2.4-2.4,1.8-6.2,2.2-9.4v-4.8l0.1-8.1 c2.1,0,16.6,0.1,21.7,0.1l0,0.7c0,2.3,0,4.9,0,7.3c0.1,2.9,0.3,5.7,0.8,8.5c1.9,4.4,7,4.2,11.1,4.6c8.8,0.5,17.7,0.2,26.6,0.4 c-0.1,5.5-0.1,12.7-0.1,18.3l-0.6,0c-15.1-0.1-29.7-0.2-45.2-0.4c-0.5-0.1-1-0.1-1-0.1c-2.3-0.6-5-1.9-6.8-3.6 c-1.9,0.6-3.6,1.9-6.1,2.8c-2.8,1.2-5.7,1.7-8.6,1.7c-6.6,0-13.2-2.7-18.5-6.4c-4.2,2-8.1,5.2-13,5.8c-1.8,0.4-3.5,0.6-5.2,0.6 c-6.9,0-13.2-3-18.6-6.9c-3,2.4-5.8,5.1-9.2,6.3c-2.9,1.1-5.6,1.6-8.2,1.6c-5.1,0-9.6-2-13.9-5.3c-8.2-7.4-7.2-17.6-6.9-28.3 c0.1-1.7,0.1-3.4,0.1-5.2c0-1.7-0.1-3.5-0.3-5.1c-0.3-1.1-1.2-2.1-2.3-2.6c-0.4-0.2-0.8-0.3-1.3-0.3c-0.9,0-1.8,0.3-2.5,0.8 c-1.6,1.4-1.6,3.5-1.7,5.7c-0.1,2.2-0.2,4.5-0.4,6.7c-0.3,10.5,0.1,20.8,0.4,31.3l-0.9,0.3c-3.2-0.2-6.3-0.2-9.4-0.2 c-4.8,0-9.5,0.2-14.5,0.5c-1.5-1.2-0.1-3.9-0.5-5.7l-0.1-10.3c-0.1-0.3-0.4-0.4-0.6-0.4c-0.2,0-0.3,0.1-0.4,0.2 c-7.9,9.8-18,18-30.2,18c-1.5,0-3-0.1-4.6-0.4c-4.9-1-9.2-3-13.2-6c-5.2,3.4-11.9,5.4-18.5,5.4c-3.9,0-7.8-0.7-11.4-2.2 c-3.6-1.1-6.6-3.6-9.8-5.9c-2.7,0.9-4.7,3.7-7.3,4.8c-3.8,1.9-8.6,2.9-13.4,2.9c-5.5,0-11.1-1.4-15.2-4.3l-3.3-2.1 c-3.8,2.1-7.4,4.6-11.8,5.3c-2.3,0.3-4.5,0.5-6.6,0.5c-7.7,0-13.6-2.6-19.4-8.8c-5-6.3-7.2-14.7-6.2-23.5c0.4-3.1,1.2-6.4,2.4-9.2 l-0.7-0.4l-6.4,0.8l-0.3,0.7c0.9,2.7,1.4,5.4,1.8,8.2c0.9,9.3-1.8,18.6-8.7,24.9c-5.3,5.1-12.7,8.1-20.1,8.1 c-3.3,0-6.6-0.6-9.7-1.9c-1.7-0.5-3.4-2.4-5.1-2.4c-0.6,0-1.3,0.3-2,1c-4.1,2.3-8.4,3.4-12.6,3.4c-4.5,0-8.8-1.2-12.8-3.7 c-11.5-5.9-15.7-17.4-15.7-29.8c0-1.6,0.1-3.3,0.2-4.9c1.4-11.1,6.8-22.3,17.5-27.6c3.7-2,8-3,12.4-3c6,0,12.2,1.8,16.8,5.2 c3.6,2.6,6.9,6.3,8.3,10.3l-0.2,0.7c-6,3.1-11.4,6.6-16.5,10c-1.2-2.9-1.5-6.1-2.6-9.1c-0.4-1.5-1.6-3.3-3.2-3.9 c-0.4-0.1-0.8-0.1-1.1-0.1c-0.9,0-1.7,0.2-2.4,0.7c-4.1,6-3.4,14.6-2.8,21.8c0,0.5,0.1,0.8,0.1,1.3c0.8,5,2.2,10.2,5.9,14 c0.6,0.3,1.4,0.6,2.1,0.6c0.5,0,0.9-0.1,1.4-0.3c2-1.2,2-3.2,2.4-5.4c0.5-3.2,0.8-5.6,0.8-8.9l-0.1-1.1c0.1,0,0.1,0,0.1,0 c0,0-0.1,0-0.1,0c0.1-2.7-0.1-5.4-0.5-8c1.3-0.1,2.5-0.1,3.8-0.1c4,0,8.2,0.3,12.4,0.3c0.8,0,1.7,0,2.5,0c0.1,0,0.2,0,0.3,0 c0.5,0,1.2-0.1,1.8-0.1c0.9,0,1.6,0.2,1.7,1.3v6.7c0.1,4.5,0.2,9.2,0.3,13.2c0.4,1.2,0.3,2.9,2,3.3c0.1,0,0.3,0,0.4,0 c1,0,2-0.5,2.7-1.4c3.3-3.9,3.6-9.4,2.8-15.2c-0.3-2.6-0.9-5.1-1.5-7.4c-2.1-5.6-5.8-10.5-5.8-17c0.7-3.8,3.1-7.9,7.1-8.9 c1-0.4,2.1-0.7,3.2-0.7c0.8,0,1.5,0.2,2.2,0.6c8.7,1.1,7.7,14,16,14c0.9,0,1.8-0.1,2.9-0.4c5.5-1.7,9.7-7.5,12.1-12.4 c0.7-0.4,1.4-0.6,2.1-0.6c1.2,0,2.5,0.4,3.9,0.4c2.6,0.9,8.3,2.3,9,4.6c-1,8.1-6.5,14.3-7,22.7c0,1.8,0,3.6,0.2,5.4 c0.4,5.4,1.7,10.5,6,13.9c1.2,0.6,2.6,1.4,3.9,1.4c0.5,0,1.1-0.1,1.6-0.4c0-2.7-1.6-5-1.8-7.7c-0.4-2.3-0.6-4.6-0.5-7.2 c0.2-11.2,4.8-21.6,13.7-29.1c4.3-3.6,10.1-5.4,15.8-5.4c4,0,8,0.9,11.5,2.8c1.7,0.5,2.7,1.2,4.4,1.4l0.5-1.1 c0.9-15.5-0.7-31.1-2.4-45.7l27.9-8.5C626.3,77.9,626.5,77.9,626.6,77.9 M655.9,162.9c0.5,0,0.9-0.5,0.9-0.5 c1.2-0.9,2.2-2.3,3.1-3.5c2.9-4.6,5.4-10.9,2.2-16.2c-0.6-0.9-1.6-1.3-2.6-1.3c-0.9,0-1.8,0.3-2.5,0.7c-5.2,5.4-6.6,17.7-1.6,20.6 C655.6,162.9,655.7,162.9,655.9,162.9 M590.9,179.1c1.1,0,2.2-0.3,3.4-0.9c3.5-1.9,5-5.5,5-9.3c-0.1-1.7-0.1-3.3,0-5.2 c0.2-5.6,0.8-11.5-1.1-16.4c-1-1.7-2.8-3.1-4.6-3.6c-0.8-0.2-1.6-0.3-2.3-0.3c-2.9,0-5.4,1.5-7.3,3.4c-1.6,5.2-2.6,11.2-2.4,16.9 c0.1,0.3,0.1,0.2,0.1,0.5c0.8,4.7,0.3,10.2,4.5,13.4C587.7,178.5,589.3,179.1,590.9,179.1 M788.6,81.5c1.7,0,3.5,0.3,4.7,1.9 c1.1,1.1,1.2,2.6,1.1,4.1c-2.6,6.2-10,6.9-16,6.9c0.4-2.3,2-4.5,3-6.7C783.2,85.3,785.4,82.1,788.6,81.5 M756.2,81.7 c1.1,0,2.3,0.3,3.4,1.1c2.1,1.5,4.1,3.9,5,6.4c0,0,1.9,5.5,1.9,5.5c-0.5,0.3-1,0.3-1.5,0.3c-1.1,0-2.4-0.4-3.4-0.5 c-3.9-0.8-8.5-1.7-10.4-5.7C749.9,84.7,752.8,81.7,756.2,81.7 M772.5,93.7c1.8,0,3.3,0.8,4.2,2.2c1.3,1.8,1.3,4.2,0,6.1 c-1.3,1.5-3,2.1-5,2.1c-1.6,0-3-0.9-4-2.2c-1.1-1.2-1.2-3.1-0.6-4.6c0.6-1.9,2.7-3.4,4.6-3.6C772.1,93.8,772.3,93.7,772.5,93.7 M789.9,97.5c2.3,0,4.5,0.5,6.3,1.6c1.4,1.3,2.4,3.1,1.8,5c-0.1,1.4-0.6,2.7-1.9,3.3c-1.2,0.5-2.5,0.8-3.8,0.8 c-2.5,0-5-0.9-7.1-2.1c-1.9-1.6-4.1-3-5.7-5.1l0.1-0.5C782.4,98.8,786.3,97.5,789.9,97.5 M756.2,98.7c2.9,0,5.4,0.9,8,1.9 c0.6,0.4,0.1,1.1-0.2,1.4c-2.8,3.8-6.6,7.5-11.5,7.5c-0.1,0-0.2,0-0.3,0c-1.5,0-2.7-0.7-3.8-1.7c-1.2-1.2-1.6-3.1-1.2-4.8 c1.1-3.4,4.9-3.6,7.9-4.2C755.5,98.7,755.9,98.7,756.2,98.7 M775.9,105c4.9,2.8,11.6,7.6,10.7,14.1c-0.4,1.6-1.7,2.5-3.2,3.3 c-0.4,0.1-0.9,0.2-1.3,0.2c-1.3,0-2.4-0.6-3.4-1.1c-2.5-2.2-3.7-4.7-4-8.1c-0.2-0.3,0-0.4,0-0.8c0-2.5,0-5,0.6-7.1L775.9,105 M769.1,105.8c0,0,0.1,0,0.1,0l0.6,0.9c0.8,4.5,1.2,10.4-1.3,14.2c-1,1.9-2.6,2-4.4,2c-0.2,0-0.4,0-0.6,0c-1.7-0.4-3.4-0.7-4.2-2.4 c-1.5-4.5,1.4-8.7,5-11.7C765.8,107.7,767.1,105.8,769.1,105.8 M382.5,61.6L382.5,61.6c-1.5,0-3,0.1-4.4,0.3 c-17.7,2.5-34.5,14.1-45,30.9c-6.6,12.3-9.4,27.3-8.3,42.6c-1.8-1.6-3.4-3.6-4.4-4.9l-2.1-2.6l-2.1,2.6 c-5.8,7.1-18.6,21.9-18.7,22.1l-1.5,1.7l1.4,1.7c0.2,0.3,5.1,6.3,7.9,8.6c3.6,3,8,5.6,13.1,7.9c1.5,0.7,3,1.3,4.6,1.8l0.2,0.1 l0.2,0c4.3,0.9,8.8,1.4,13.1,1.8l0.9,1c2.9,3.9,6.3,6.8,9.8,9.2c-9.1-0.2-19.7-0.4-21.3-0.4l-2.6-0.1l-0.2,2.6 c-0.1,2.7-0.3,5.6,0,8.6c0,0.2,0.5,4.9,2.6,11.2c2.4,7,9.3,14.5,12.3,16.8c0.4,0.3,0.9,0.7,1.4,1.1c1.4,1.1,3.2,2.6,5.3,3.8 c1.9,1.1,4,1.9,5.6,2.6c0.6,0.3,1.2,0.5,1.6,0.7c2.6,1,11.8,2.7,14.1,3.1c3.2,0.5,11.7,0.9,14,0.9c0.2,0,0.4,0,0.6,0 c1.5-0.1,8.6-1,13.2-1.7c4-0.6,10.1-2,17-6.4c2.4-1.5,7.3-5.6,8.8-7.1c1.1-1.1,2.4-2.4,4.7-5.5c1.9-2.5,5-8.3,5.8-12 c0.3-1.1,0.9-4.3,1.3-7.9c0.3-3.3,0.5-6.8,0.7-8.9l0.1-1.5c0-0.1,0.1-3.1,0.1-7.1c2.8,7.2,7.7,12.7,14.5,16.1c4.1,2.5,9,3.9,14,3.9 c4.8,0,9.6-1.3,13.9-3.8l0.4-0.2l0.3-0.3c0,0,0,0,0.1,0c0.3,0,1,0.5,1.5,0.7c0.8,0.5,1.7,1,2.7,1.4c3.3,1.3,6.9,2,10.6,2 c8.1,0,16.1-3.2,22-8.9c3.9-3.6,6.6-8.2,8.2-13.4c1.2,4.3,3.1,8.3,5.9,11.7c6.4,6.8,13,9.8,21.5,9.8c2.1,0,4.4-0.2,7-0.6 c4.2-0.8,7.7-2.8,11-4.7l0.3-0.2l1.9,1.2c4.3,3,10.2,4.7,16.7,4.7c5.3,0,10.4-1.1,14.6-3.2c1.4-0.6,2.7-1.7,3.9-2.6 c0.6-0.5,1.3-1.1,1.9-1.5c0.2,0.1,0.3,0.2,0.5,0.4c2.6,1.9,5.4,4,8.7,5c3.7,1.6,7.9,2.4,12.3,2.4c6.4,0,13-1.8,18.4-4.8 c4,2.7,8.3,4.5,12.8,5.4c1.8,0.3,3.5,0.4,5.1,0.4c9.9,0,19.5-4.9,28.6-14.7l0,4.6l0,0.3l0.1,0.3c0.1,0.3,0,0.9-0.1,1.4 c-0.2,1.5-0.6,4.1,1.5,5.8l0.8,0.7l1.1-0.1c5-0.3,9.7-0.5,14.3-0.5c3.1,0,6.1,0.1,9.3,0.2l0.6,0l0.5-0.2l0.9-0.3l1.8-0.7l-0.1-1.9 l-0.1-2.6c-0.3-9.7-0.6-19-0.3-28.5c0.1-1.2,0.2-2.7,0.2-4.1c0-0.8,0.1-1.7,0.1-2.5l0-0.4c0.1-1.7,0.2-2.8,0.7-3.4 c0.3-0.1,0.6-0.2,0.9-0.2l0.1,0.1l0.2,0c0.3,0.1,0.5,0.4,0.6,0.6c0.2,1.4,0.2,2.9,0.3,4.6c0,1.7,0,3.4-0.1,5l-0.1,2.5 c-0.3,9.9-0.7,20.2,7.8,27.9c5.3,4.1,10.4,6,15.7,6c2.9,0,6-0.6,9.1-1.8c3.1-1.1,5.8-3.3,8.3-5.4c0,0,0,0,0.1-0.1 c6.2,4.1,12.4,6.2,18.5,6.2c1.9,0,3.8-0.2,5.7-0.6c3.9-0.5,7.1-2.4,10.2-4.1c0.7-0.4,1.4-0.8,2.1-1.2c6,3.9,12.5,6,18.7,6 c3.4,0,6.7-0.7,9.7-1.9c1.3-0.5,2.5-1.1,3.6-1.7c0.4-0.2,0.7-0.4,1.1-0.6c1.9,1.4,4.4,2.6,6.6,3.1l0.3,0.1l0.3,0c0,0,0.3,0,0.6,0.1 l0.2,0l0.2,0c12.4,0.2,24,0.3,36.3,0.3l8.9,0.1l0.5,0l2.8,0.2l0-2.8l0-4.7c0-4.6,0.1-9.5,0.1-13.6l0-2.7l-2.7-0.1 c-3.4-0.1-6.9-0.1-10.3-0.1c-5.4,0-10.9,0-16.3-0.3c-0.4,0-0.9-0.1-1.5-0.1c-3.7-0.3-6.1-0.6-7.1-2.6c-0.5-2.6-0.7-5.4-0.7-7.7 c-0.1-1.9,0-3.7,0-5.5l0-1.8l0-0.8l-0.1-2.5l-2.5,0c-3.1,0-9.9-0.1-15.1-0.1c3.5-2.2,7.1-4.2,11-6.3l1.4-0.8v-1.6 c0-1-0.3-1.8-0.5-2.4c-0.1-0.1-0.1-0.3-0.1-0.4l-0.1-0.4l-0.2-0.5c-5.2-9.8-15.1-16.1-25.3-16.1h0c-0.8,0-1.6,0-2.4,0.1 c-10.8,0.7-21.7,11.2-25.7,20.5c-2.6,4.8-3.8,10.7-3.9,18.5c0,2,0,4.7,0,7c0,2.2,0,4,0,4.5c0,0.2,0,0.3-0.1,0.4 c-0.4,0.3-0.7,0.4-0.9,0.4c-0.2,0-0.5,0-0.8-0.1c-1.4-0.4-1.7-1.6-1.6-6.1c0-1.1,0.1-2.1,0-3.1l0-35.4v-1.4l-1.1-0.8l-0.5-0.3 l-0.7-0.5l-0.8,0l-20.3-0.4c-0.4-0.2-0.8-0.2-1.1-0.2c-0.8,0-2,0.3-2.8,1.9l-0.4,0.7l0,0.8c0.1,11.5,0.1,22-0.2,32.4l0,1 c0,2.2-0.1,4.5-0.2,6.6l0,2.4c-0.6,0.5-1.4,1-1.8,1.1c-0.1,0-0.1,0-0.2,0l-0.1-0.1l-0.6-0.4c-0.5-0.9-0.7-3.9-0.5-6.5l0-0.3l0-0.3 c-0.1-0.5,0-1,0.1-1.7c0.1-0.6,0.1-1.3,0.1-1.9c0-1.8,0.1-3.7,0.1-5.5c0.2-5.5,0.4-11.3-1.1-16.9c-2.3-8.7-9.3-14.8-18-15.3 c-0.8-0.1-1.7-0.1-2.6-0.1c-4.4,0-7.8,0.9-10.5,2.6c-0.6,0.4-1.2,1-2.2,2.1c-0.5,0.5-1.2,1.3-1.9,1.9c-0.4-0.6-0.8-1.3-1.5-1.9 c-3.1-2.7-7.1-4.3-10.8-4.3c-5,0-9.2,2.7-11.4,7.3c-1.2,2.5-2.1,4.7-2.9,6.8c-0.8,2.5-1.7,4.9-2.6,7.3c-2.1,5.7-4.2,10-6.5,13.7 l-0.3,0.5c-3,4.6-6.6,8.2-10.8,11l-0.1,0.1c-0.7,0.4-1.5,0.8-2.2,1.1c6.4-6.4,12.3-13.5,14.1-22.5c1.9-9.6-3.7-20.1-13.3-24.8 c-3.2-1.6-6.6-2.4-10.2-2.4c-7.4,0-15.2,3.7-21.5,10.1c-3.5,3.6-6.1,7.5-7.9,11.8c-2.3,5.8-3.4,11.4-3.3,16.7 c0.2,4.7,1.5,8.9,2.8,13c0.2,0.7,0.4,1.3,0.6,2l-0.2,0c-0.9,0-1.7-0.8-2.1-1.2c-2.2-3.9-2.6-8.8-2.8-13.1l-0.1-1.8 c-0.2-4.7-0.5-9.4-0.7-14c-0.3-10.4,0-21.7,0.9-34.3c0.9-11.8,2.3-23.4,3.6-34.1l0-0.3c0.1-0.4,0.1-0.8,0.1-1.2 c0-1.6-1.2-3.1-3.4-3.1c-0.4,0-0.7,0.1-0.7,0.1l-0.2,0l-0.2,0.1l-27.9,8.5l-2.1,0.7l0.3,2.2c1.7,14.5,3.1,28.7,2.5,43.1 c-0.4-0.2-0.8-0.3-1.3-0.5c-3.7-1.9-8-3-12.5-3c-6.5,0-12.9,2.2-17.5,6c-9.3,7.8-14.5,18.9-14.7,31.1c-0.1,2.8,0.1,5.2,0.5,7.6 c0.1,1.6,0.6,2.9,1.1,4.2c0,0.1,0.1,0.2,0.1,0.3c-0.1-0.1-0.2-0.1-0.3-0.2l-0.4-0.2c-2.9-2.4-4.4-6.1-4.8-11.8 c-0.2-1.9-0.2-3.8-0.2-5.2c0.2-3.8,1.7-7.3,3.3-11c1.5-3.5,3.1-7.2,3.6-11.4l0.1-0.6l-0.2-0.6c-1-3.1-4.9-4.5-9.5-6 c-0.4-0.1-0.9-0.3-1.2-0.4l-0.4-0.1h-0.4c-0.6,0-1.2-0.1-1.7-0.2c-0.7-0.1-1.5-0.2-2.2-0.2c-1.4,0-2.5,0.3-3.5,1l-0.6,0.4l-0.3,0.7 c-2.7,5.7-6.6,9.8-10.4,11c-0.7,0.2-1.4,0.3-2.1,0.3c-2.4,0-3.5-1.6-5.5-5.3c-1.9-3.4-4.3-7.7-9.6-8.6c-0.9-0.5-2-0.7-3.1-0.7 c-1.2,0-2.5,0.3-4,0.8c-5.3,1.4-8.1,6.8-8.9,10.9l0,0.3v0.3c0,5.2,2,9.3,3.9,13.2c0.7,1.6,1.5,3.1,2,4.6c0.5,2,1.1,4.5,1.4,6.9 c0.8,6.1,0.1,10.4-2.2,13.1c-0.1,0.1-0.1,0.1-0.2,0.2c0-0.1,0-0.1,0-0.2c0-0.2-0.1-0.4-0.1-0.6c0-1.7-0.1-3.5-0.1-5.3 c-0.1-2.5-0.1-5.1-0.2-7.6v-6.6c-0.2-2-1.4-4-4.4-4c-0.4,0-0.8,0-1.2,0.1c-0.2,0-0.4,0-0.6,0l-0.2,0l-0.2,0c-0.8,0-1.6,0-2.5,0 c-2.1,0-4.2-0.1-6.3-0.2c-1,0-2.1-0.1-3.1-0.1c3.5-2.2,7-4.3,10.8-6.3l1-0.5l0.3-1l0.2-0.7l0.3-0.9l-0.3-0.9 c-1.5-4.3-4.9-8.5-9.3-11.6c-4.9-3.6-11.6-5.7-18.3-5.7c-5,0-9.7,1.1-13.7,3.3c-8.1,4.1-14.1,11.7-17.2,21.5 c-0.1-0.6-0.2-1.2-0.4-1.7l-0.6-2l-2.1,0.1c-0.2,0-0.9,0-1.9,0c-6.9,0-28.2-0.1-28.2-0.1l-1.4,0c8.3-8.4,15.6-18.8,19.8-31.4 c2.3-7.5,4.3-18.6,0.9-29.6c-1.7-5.5-5.7-12.8-12-16.7C399.1,64.1,390.3,61.6,382.5,61.6 M360.2,144.8c-0.1-0.6-0.3-1.4-0.5-2.7 l-0.1-0.4c-0.3-1.7-0.6-3.5-0.8-5.5c-0.3-3.6-0.5-7.2-0.5-10.7c0.1-14.2,3.1-25.8,8.9-34.5c3.2-4.8,9-10.5,15.5-12 c1.5-0.3,3.1-0.5,4.7-0.5c5.4,0,10,1.9,12.6,5.2c5.8,7.3,2.8,19.3,1.2,24.2c-1,3.1-2.3,6.2-3.9,9.2 C389.2,131.4,375,142,360.2,144.8 M463.1,143.4c0.1,0,0.3-0.1,0.5-0.1c0.1,0,0.2,0,0.3,0c0.6,0.4,1.2,1.2,1.5,2.1 c0.5,1.3,0.8,2.6,1.1,4c0.4,1.5,0.7,3.1,1.3,4.7l0.2,1.5c0.2,1.6,0.4,3.3,0.4,5h-0.1l0,2.8l0,0.6l0,1.8l0,0 c-0.1,2.4-0.4,4.5-0.8,7.2c0,0.2-0.1,0.6-0.2,1c-0.3,1.5-0.4,2.1-0.8,2.4c0,0-0.1,0-0.1,0c-0.2,0-0.3,0-0.5-0.1 c-3-3.3-4.1-7.9-4.8-12c0-0.3,0-0.6-0.1-0.9l0-0.4l0-0.4C460.6,156,460,148.5,463.1,143.4 M658.7,144.4c0.3-0.1,0.6-0.2,0.9-0.2 c0.2,0,0.3,0,0.3,0c2.5,4.4-0.2,10.1-2.2,13.2c-0.6,0.7-1.2,1.5-1.8,2.1c-0.4-0.6-0.6-1.5-0.8-2.5 C654.5,152.9,656.1,147.3,658.7,144.4 M586.4,148.2c1.2-1.1,2.9-2.2,4.9-2.2c0.5,0,1.1,0.1,1.6,0.2c1.1,0.4,2.3,1.3,2.9,2.2 c1.4,3.8,1.2,8.7,1,13.4l-0.1,1.8l0,0.3c-0.1,1.8-0.1,3.4,0,5.2c0,2.1-0.7,5.2-3.6,6.8c-0.7,0.4-1.4,0.6-2.2,0.6 c-1,0-2-0.4-3.2-1.2c-2.2-1.7-2.6-4.8-2.9-8.4c-0.1-1-0.2-2-0.4-2.9c0-0.2,0-0.3-0.1-0.6C584.1,158.8,584.9,153.4,586.4,148.2 M371.7,165.2c7.5-4.4,16-10.4,23.9-18.1l-0.1,1.2c-0.6,5-1.4,10.7-1.6,11.6c-1.1,3.4-3.7,6.3-7.3,7.9c-1.8,0.8-3.9,1.3-5.9,1.3 c-2.5,0-4.7-0.6-6.3-1.8C373.1,166.4,372.3,165.7,371.7,165.2 M821.3,148.1c0.5-0.5,0.8-0.5,1-0.5l0.3,0l0.5,0h0c0.2,0,1,0.7,1.5,2 l0.1,0.1l0.1,0.1c0.3,0.6,0.5,1.4,0.7,2.3c0.2,0.8,0.4,1.6,0.8,2.4l0,1.8l-0.1,8.1v4.7c-0.1,0.8-0.1,1.7-0.1,2.5 c-0.1,2.5-0.2,4.2-1.2,5.2c-0.3,0.2-0.8,0.4-1.3,0.4c-0.2,0-0.3,0-0.5-0.1c-1.7-0.5-2-2.2-2.4-5.8c-0.1-0.9-0.2-1.8-0.4-2.7 c0-1.6-0.1-4.3-0.1-4.3l-0.1-1.6C819.7,157.5,819.5,152.8,821.3,148.1 M520.3,156.9l0.2,0c0,0.1-0.1,0.3-0.1,0.4 C520.3,157.2,520.3,157.1,520.3,156.9 M374.8,195.7c3.1,0,6.3-0.3,9.4-0.8c1.3-0.2,2.6-0.5,3.9-0.8c1.3-0.3,2.5-0.6,3.7-0.8 c0.6-0.1,1.4-0.3,2.3-0.6c0,2.3-0.1,5.4-0.1,5.4c0,2.6-0.6,5.5-1,7.4c-0.5,2.2-1.2,3.6-2.1,4.3c-2,1.5-5.2,2.6-8.9,3 c-1,0.1-2.1,0.2-3.3,0.2c-0.8,0-1.6,0-2.4-0.1c-1.7-0.1-3.5-0.2-5-0.8c-2.2-0.8-3.7-1.9-5-3.6c-1.4-1.9-2.6-4.1-3.3-6.2 c-0.5-1.4-1-3.2-1-4.6c0-0.3,0-1-0.1-1.8c0-0.6-0.1-1.4-0.1-2.2c0.1,0,0.2,0.1,0.3,0.1c0.8,0.2,1.5,0.5,2.3,0.6 c0.5,0.1,1,0.2,1.5,0.3c0.8,0.2,1.7,0.4,2.5,0.6c1.6,0.3,3.1,0.3,4.6,0.4C373.6,195.6,374.2,195.7,374.8,195.7 M772.9,71.2 c-0.4,0-0.8,0-1.3,0.1l-0.2,0l-0.2,0.1l-0.4,0.2c-1.4,0.5-3.6,1.3-4.8,3.5c-2.2,4.3-0.5,8.8,0.8,12c-1.1-2.5-3.1-4.8-5.5-6.5 c-1.5-1-3.2-1.6-5-1.6c-2.6,0-5.1,1.2-6.6,3.3c-1.5,2-1.9,4.7-1.1,7.3l0.1,0.2l0.1,0.2c1.7,3.5,4.8,5.2,7.8,6.1c-0.1,0-0.2,0-0.3,0 c-0.4,0-0.9,0-1.4,0.1l-0.1,0l-0.1,0l-0.9,0.1c-3,0.5-7.6,1.2-9.1,5.8l0,0.1l0,0.1c-0.6,2.8,0.2,5.6,2,7.4c1.8,1.6,3.6,2.4,5.6,2.4 l0.3,0c2.3,0,4.5-0.6,6.7-1.9c-3.5,4.5-3.3,8.5-2.4,11.2l0.1,0.2l0.1,0.2c1.4,2.7,4,3.3,5.9,3.7l0.3,0.1l0.4,0h0.3l0.3,0 c1.7,0,4.9,0,6.7-3.3c1-1.5,1.6-3.3,1.9-5.1c0.8,2.5,2.2,4.5,4.2,6.3l0.2,0.2l0.2,0.1c1.2,0.7,2.8,1.5,4.8,1.5 c0.7,0,1.4-0.1,2.1-0.3l0.2-0.1l0.2-0.1c1.2-0.7,3.8-2,4.6-5l0-0.1l0-0.1c0.6-4-1-7.3-3.2-10c2.1,0.9,4.2,1.4,6.3,1.4 c1.8,0,3.4-0.3,4.9-1c1.4-0.6,3.1-2,3.4-5.3c0.6-2.6-0.3-5.4-2.7-7.5l-0.2-0.2l-0.2-0.1c-1.9-1.1-4.2-1.8-6.7-1.9 c2.5-1.3,4.7-3.2,6-6.3l0.2-0.4l0-0.4c0.1-1.7,0.1-4.1-1.7-6.1c-2-2.5-4.8-2.8-6.7-2.8l-0.2,0l-0.2,0c-4.2,0.7-6.8,4.3-8.7,6.9 l-0.2,0.2c0.2-0.6,0.4-1.2,0.5-1.9c0.6-2,2.2-7.8-1.9-11.2l-0.1-0.1l-0.1-0.1C776.1,71.7,774.5,71.2,772.9,71.2 M768.6,92.1 c-0.6-1.6-1.4-3.9-1.4-3.9c0,0,0,0,0,0l0.2,0.5c0.4,0.9,0.9,2.1,1.7,3.1C768.9,91.9,768.7,92,768.6,92.1 M776.1,91.9 c0.2-0.2,0.4-0.5,0.6-0.7c-0.1,0.3-0.2,0.6-0.3,0.8C776.2,91.9,776.2,91.9,776.1,91.9 M780.2,97.1c0.1,0,0.2,0,0.3,0 c-0.1,0-0.2,0.1-0.3,0.1C780.2,97.2,780.2,97.1,780.2,97.1 M764.3,97.7c-0.2-0.1-0.3-0.1-0.5-0.2c0.2,0,0.3,0,0.5,0.1 C764.4,97.6,764.3,97.7,764.3,97.7 M765.5,104.3c0.1-0.1,0.2-0.3,0.3-0.4c0,0.1,0.1,0.1,0.1,0.2 C765.9,104.1,765.7,104.2,765.5,104.3"></path> <path clip-path="url(#SVGID_2_)" fill="#2A2A86" d="M906.8,197.4c-2.9,0-5.4-1-7.5-3.1c-2-2-3.1-4.5-3.1-7.4c0-2.9,1-5.4,3.1-7.5 c2-2.1,4.6-3.1,7.5-3.1c2.9,0,5.4,1,7.5,3.1c2,2,3.1,4.5,3.1,7.4c0,2.9-1,5.4-3.1,7.5C912.3,196.4,909.7,197.4,906.8,197.4 M906.9,177.9c-2.5,0-4.6,0.9-6.3,2.6c-1.7,1.7-2.6,3.9-2.6,6.3c0,2.5,0.9,4.6,2.5,6.3c1.7,1.7,3.8,2.6,6.3,2.6 c2.5,0,4.6-0.9,6.3-2.6c1.7-1.7,2.6-3.8,2.6-6.3c0-2.5-0.9-4.6-2.5-6.3C911.5,178.8,909.4,177.9,906.9,177.9 M910.1,192.1l-3.3-4.1 l-2,0.1v4h-2.3V181h5c1.4,0,2.5,0.4,3.4,1.2c0.6,0.6,1,1.4,1,2.3c0,1.7-0.8,2.8-2.4,3.3l3.4,4.4H910.1z M907.4,186.1 c0.7,0,1.2-0.1,1.6-0.4c0.4-0.3,0.5-0.6,0.5-1c0-0.7-0.2-1.5-2-1.5h-2.7v2.9H907.4z"></path> <path clip-path="url(#SVGID_2_)" fill="#2A2A86" d="M906.8,197c-2.8,0-5.2-1-7.2-3c-2-2-2.9-4.4-2.9-7.1v-0.1c0-2.8,1-5.2,3-7.2 c2-2,4.4-3,7.2-3c2.8,0,5.2,1,7.2,3c2,2,2.9,4.4,2.9,7.1v0.1c0,2.8-1,5.2-3,7.2C912.1,196,909.7,197,906.8,197 M906.8,196.1 c2.6,0,4.8-0.9,6.6-2.7c1.8-1.8,2.7-4,2.7-6.6v-0.1c0-2.6-0.9-4.7-2.7-6.5c-1.8-1.8-4-2.7-6.6-2.7c-2.6,0-4.8,0.9-6.6,2.7 c-1.8,1.8-2.7,4-2.7,6.6v0.1c0,2.6,0.9,4.7,2.7,6.5C902,195.2,904.2,196.1,906.8,196.1 M902.9,191.8v-10.4h4.7 c1.3,0,2.3,0.4,3.1,1.1c0.6,0.5,0.8,1.2,0.8,2v0.1c0,1.6-0.9,2.6-2.7,3.1l3.2,4.2h-1.9l-3-3.9h-2.7v3.9H902.9z M904.4,186.5h3 c0.7,0,1.3-0.2,1.8-0.5c0.4-0.3,0.7-0.8,0.7-1.4v-0.1c0-1.2-0.8-1.8-2.4-1.8h-3.1V186.5z"></path> </g> </svg> 